<svg xmlns="http://www.w3.org/2000/svg" xmlns:xlink="http://www.w3.org/1999/xlink" viewBox="306.863000 129.596000 432.648000 273.015000"><path d="M 312.352,330.088 C 314.350,328.090 314.350,328.090 316.349,326.092" stroke-width="5.489" stroke="black" fill="none" stroke-linecap="round"></path><path d="M 316.349,326.092 C 319.147,322.870 319.346,323.096 322.344,320.100" stroke-width="4.147" stroke="black" fill="none" stroke-linecap="round"></path><path d="M 322.344,320.100 C 326.889,316.665 326.641,316.378 331.337,313.109" stroke-width="3.433" stroke="black" fill="none" stroke-linecap="round"></path><path d="M 331.337,313.109 C 336.892,308.685 336.881,308.675 342.328,304.120" stroke-width="3.375" stroke="black" fill="none" stroke-linecap="round"></path><path d="M 342.328,304.120 C 349.587,298.413 349.382,298.198 356.317,292.135" stroke-width="3.375" stroke="black" fill="none" stroke-linecap="round"></path><path d="M 356.317,292.135 C 364.436,284.266 364.576,284.431 372.305,276.155" stroke-width="3.375" stroke="black" fill="none" stroke-linecap="round"></path><path d="M 372.305,276.155 C 380.435,267.790 380.423,267.787 388.292,259.176" stroke-width="3.375" stroke="black" fill="none" stroke-linecap="round"></path><path d="M 388.292,259.176 C 395.978,250.848 395.923,250.811 403.281,242.197" stroke-width="3.375" stroke="black" fill="none" stroke-linecap="round"></path><path d="M 403.281,242.197 C 409.601,234.945 409.468,234.868 415.271,227.216" stroke-width="3.375" stroke="black" fill="none" stroke-linecap="round"></path><path d="M 415.271,227.216 C 420.467,219.850 420.593,219.963 425.264,212.235" stroke-width="3.375" stroke="black" fill="none" stroke-linecap="round"></path><path d="M 425.264,212.235 C 428.843,206.289 428.960,206.367 432.258,200.250" stroke-width="3.375" stroke="black" fill="none" stroke-linecap="round"></path><path d="M 432.258,200.250 C 435.670,194.944 435.338,194.803 438.253,189.264" stroke-width="3.375" stroke="black" fill="none" stroke-linecap="round"></path><path d="M 438.253,189.264 C 440.479,183.842 440.666,183.958 442.250,178.277" stroke-width="3.375" stroke="black" fill="none" stroke-linecap="round"></path><path d="M 442.250,178.277 C 444.449,172.878 443.976,172.856 445.248,167.291" stroke-width="3.375" stroke="black" fill="none" stroke-linecap="round"></path><path d="M 445.248,167.291 C 445.248,162.297 445.948,162.391 445.248,157.303" stroke-width="3.420" stroke="black" fill="none" stroke-linecap="round"></path><path d="M 445.248,157.303 C 445.248,152.809 445.248,152.809 445.248,148.315" stroke-width="3.690" stroke="black" fill="none" stroke-linecap="round"></path><path d="M 445.248,148.315 C 445.248,144.819 445.248,144.819 445.248,141.323" stroke-width="3.892" stroke="black" fill="none" stroke-linecap="round"></path><path d="M 445.248,141.323 C 446.008,135.584 445.248,138.327 445.248,135.331" stroke-width="4.030" stroke="black" fill="none" stroke-linecap="round"></path><path d="M 445.248,135.331 C 443.466,137.691 444.509,135.085 442.250,140.325" stroke-width="4.801" stroke="black" fill="none" stroke-linecap="round"></path><path d="M 442.250,140.325 C 440.663,144.288 440.469,144.183 439.253,148.315" stroke-width="4.010" stroke="black" fill="none" stroke-linecap="round"></path><path d="M 439.253,148.315 C 436.991,154.230 437.165,154.276 435.256,160.300" stroke-width="3.428" stroke="black" fill="none" stroke-linecap="round"></path><path d="M 435.256,160.300 C 433.200,168.276 432.994,168.213 431.259,176.280" stroke-width="3.375" stroke="black" fill="none" stroke-linecap="round"></path><path d="M 431.259,176.280 C 429.206,184.757 429.203,184.755 427.262,193.259" stroke-width="3.375" stroke="black" fill="none" stroke-linecap="round"></path><path d="M 427.262,193.259 C 424.977,202.193 425.209,202.235 423.265,211.236" stroke-width="3.375" stroke="black" fill="none" stroke-linecap="round"></path><path d="M 423.265,211.236 C 421.766,220.724 421.480,220.670 420.267,230.212" stroke-width="3.375" stroke="black" fill="none" stroke-linecap="round"></path><path d="M 420.267,230.212 C 418.556,239.672 418.769,239.701 417.270,249.189" stroke-width="3.375" stroke="black" fill="none" stroke-linecap="round"></path><path d="M 417.270,249.189 C 416.299,258.181 416.058,258.149 415.271,267.166" stroke-width="3.375" stroke="black" fill="none" stroke-linecap="round"></path><path d="M 415.271,267.166 C 413.789,275.627 414.300,275.659 413.273,284.145" stroke-width="3.375" stroke="black" fill="none" stroke-linecap="round"></path><path d="M 413.273,284.145 C 413.273,292.135 412.790,292.107 413.273,300.125" stroke-width="3.375" stroke="black" fill="none" stroke-linecap="round"></path><path d="M 413.273,300.125 C 413.770,306.655 413.273,306.617 413.273,313.109" stroke-width="3.375" stroke="black" fill="none" stroke-linecap="round"></path><path d="M 413.273,313.109 C 411.777,319.563 412.770,319.639 411.274,326.092" stroke-width="3.375" stroke="black" fill="none" stroke-linecap="round"></path><path d="M 411.274,326.092 C 411.771,332.622 410.778,332.546 411.274,339.076" stroke-width="3.375" stroke="black" fill="none" stroke-linecap="round"></path><path d="M 411.274,339.076 C 409.820,345.533 410.772,345.606 409.276,352.060" stroke-width="3.375" stroke="black" fill="none" stroke-linecap="round"></path><path d="M 409.276,352.060 C 409.276,357.553 408.821,357.518 409.276,363.046" stroke-width="3.375" stroke="black" fill="none" stroke-linecap="round"></path><path d="M 409.276,363.046 C 409.797,367.605 409.276,367.541 409.276,372.035" stroke-width="3.522" stroke="black" fill="none" stroke-linecap="round"></path><path d="M 409.276,372.035 C 407.856,375.978 408.798,376.094 407.278,380.025" stroke-width="3.654" stroke="black" fill="none" stroke-linecap="round"></path><path d="M 407.278,380.025 C 407.278,383.021 406.857,382.970 407.278,386.018" stroke-width="3.993" stroke="black" fill="none" stroke-linecap="round"></path><path d="M 407.278,386.018 C 405.162,392.628 407.278,390.512 407.278,395.006" stroke-width="4.283" stroke="black" fill="none" stroke-linecap="round"></path><path d="M 407.278,395.006 C 411.941,396.393 409.159,397.122 415.271,395.006" stroke-width="5.097" stroke="black" fill="none" stroke-linecap="round"></path><path d="M 415.271,395.006 C 417.499,392.665 417.936,393.897 419.268,390.013" stroke-width="4.345" stroke="black" fill="none" stroke-linecap="round"></path><path d="M 419.268,390.013 C 421.267,386.517 421.496,386.673 423.265,383.021" stroke-width="3.961" stroke="black" fill="none" stroke-linecap="round"></path><path d="M 423.265,383.021 C 425.264,379.526 425.264,379.526 427.262,376.030" stroke-width="3.805" stroke="black" fill="none" stroke-linecap="round"></path><path d="M 427.262,376.030 C 429.460,372.634 429.260,372.534 431.259,369.039" stroke-width="3.813" stroke="black" fill="none" stroke-linecap="round"></path><path d="M 431.259,369.039 C 432.559,365.441 432.958,365.643 434.257,362.048" stroke-width="3.813" stroke="black" fill="none" stroke-linecap="round"></path><path d="M 434.257,362.048 C 435.598,359.445 435.556,359.449 437.254,357.054" stroke-width="4.069" stroke="black" fill="none" stroke-linecap="round"></path><path d="M 437.254,357.054 C 440.059,352.891 440.095,352.953 443.250,349.064" stroke-width="4.904" stroke="black" fill="none" stroke-linecap="round"></path><path d="M 443.250,349.064 C 445.248,347.066 445.055,346.899 447.246,345.069" stroke-width="4.832" stroke="black" fill="none" stroke-linecap="round"></path><path d="M 447.246,345.069 C 449.732,343.423 449.245,343.071 451.243,341.074" stroke-width="4.840" stroke="black" fill="none" stroke-linecap="round"></path><path d="M 451.243,341.074 C 454.006,336.190 454.229,336.432 456.239,331.086" stroke-width="5.083" stroke="black" fill="none" stroke-linecap="round"></path><path d="M 456.239,331.086 C 457.239,328.090 457.503,328.200 458.238,325.094" stroke-width="4.789" stroke="black" fill="none" stroke-linecap="round"></path><path d="M 458.238,325.094 C 459.307,322.119 459.237,322.098 460.236,319.101" stroke-width="4.333" stroke="black" fill="none" stroke-linecap="round"></path><path d="M 460.236,319.101 C 461.298,315.622 461.306,315.627 462.235,312.110" stroke-width="4.099" stroke="black" fill="none" stroke-linecap="round"></path><path d="M 462.235,312.110 C 463.185,308.102 463.296,308.132 464.233,304.120" stroke-width="3.928" stroke="black" fill="none" stroke-linecap="round"></path><path d="M 464.233,304.120 C 465.750,298.632 465.683,298.614 467.231,293.134" stroke-width="3.519" stroke="black" fill="none" stroke-linecap="round"></path><path d="M 467.231,293.134 C 469.000,285.574 469.247,285.648 471.228,278.152" stroke-width="3.375" stroke="black" fill="none" stroke-linecap="round"></path><path d="M 471.228,278.152 C 473.807,270.688 473.496,270.593 476.224,263.171" stroke-width="3.375" stroke="black" fill="none" stroke-linecap="round"></path><path d="M 476.224,263.171 C 478.150,256.656 478.303,256.705 480.221,250.187" stroke-width="3.375" stroke="black" fill="none" stroke-linecap="round"></path><path d="M 480.221,250.187 C 482.449,244.262 482.147,244.172 484.217,238.202" stroke-width="3.375" stroke="black" fill="none" stroke-linecap="round"></path><path d="M 484.217,238.202 C 485.655,232.194 485.947,232.277 487.215,226.217" stroke-width="3.375" stroke="black" fill="none" stroke-linecap="round"></path><path d="M 487.215,226.217 C 488.648,220.705 488.653,220.708 490.213,215.231" stroke-width="3.375" stroke="black" fill="none" stroke-linecap="round"></path><path d="M 490.213,215.231 C 491.884,210.282 491.646,210.218 493.210,205.244" stroke-width="3.375" stroke="black" fill="none" stroke-linecap="round"></path><path d="M 493.210,205.244 C 494.092,200.719 494.382,200.794 495.209,196.255" stroke-width="3.558" stroke="black" fill="none" stroke-linecap="round"></path><path d="M 495.209,196.255 C 496.059,192.708 496.091,192.729 497.207,189.264" stroke-width="3.817" stroke="black" fill="none" stroke-linecap="round"></path><path d="M 497.207,189.264 C 498.556,183.296 498.057,186.716 499.206,184.270" stroke-width="4.084" stroke="black" fill="none" stroke-linecap="round"></path><path d="M 499.206,184.270 C 501.204,189.782 500.555,186.292 501.204,195.256" stroke-width="4.757" stroke="black" fill="none" stroke-linecap="round"></path><path d="M 501.204,195.256 C 500.029,199.717 501.204,199.770 499.206,204.245" stroke-width="3.859" stroke="black" fill="none" stroke-linecap="round"></path><path d="M 499.206,204.245 C 498.324,210.757 498.031,210.704 497.207,217.229" stroke-width="3.375" stroke="black" fill="none" stroke-linecap="round"></path><path d="M 497.207,217.229 C 495.709,225.219 495.826,225.239 494.210,233.209" stroke-width="3.375" stroke="black" fill="none" stroke-linecap="round"></path><path d="M 494.210,233.209 C 492.757,241.208 492.711,241.199 491.212,249.189" stroke-width="3.375" stroke="black" fill="none" stroke-linecap="round"></path><path d="M 491.212,249.189 C 489.816,256.701 489.760,256.688 488.214,264.170" stroke-width="3.375" stroke="black" fill="none" stroke-linecap="round"></path><path d="M 488.214,264.170 C 486.475,270.616 486.818,270.684 485.217,277.154" stroke-width="3.375" stroke="black" fill="none" stroke-linecap="round"></path><path d="M 485.217,277.154 C 484.298,283.659 483.977,283.599 483.218,290.137" stroke-width="3.375" stroke="black" fill="none" stroke-linecap="round"></path><path d="M 483.218,290.137 C 481.773,295.590 482.300,295.644 481.220,301.124" stroke-width="3.375" stroke="black" fill="none" stroke-linecap="round"></path><path d="M 481.220,301.124 C 481.220,305.618 480.774,305.578 481.220,310.112" stroke-width="3.504" stroke="black" fill="none" stroke-linecap="round"></path><path d="M 481.220,310.112 C 481.220,313.608 481.220,313.608 481.220,317.104" stroke-width="3.828" stroke="black" fill="none" stroke-linecap="round"></path><path d="M 481.220,317.104 C 481.220,320.100 481.220,320.100 481.220,323.096" stroke-width="4.054" stroke="black" fill="none" stroke-linecap="round"></path><path d="M 481.220,323.096 C 478.851,330.540 481.220,327.091 481.220,331.086" stroke-width="4.580" stroke="black" fill="none" stroke-linecap="round"></path><path d="M 481.220,331.086 C 488.165,329.388 485.346,332.038 494.210,326.092" stroke-width="4.453" stroke="black" fill="none" stroke-linecap="round"></path><path d="M 494.210,326.092 C 498.706,322.597 499.157,323.395 503.203,319.101" stroke-width="3.566" stroke="black" fill="none" stroke-linecap="round"></path><path d="M 503.203,319.101 C 507.800,315.728 507.699,315.606 512.196,312.110" stroke-width="3.425" stroke="black" fill="none" stroke-linecap="round"></path><path d="M 512.196,312.110 C 516.047,308.431 516.294,308.737 520.189,305.119" stroke-width="3.394" stroke="black" fill="none" stroke-linecap="round"></path><path d="M 520.189,305.119 C 523.747,302.702 523.541,302.438 527.184,300.125" stroke-width="3.627" stroke="black" fill="none" stroke-linecap="round"></path><path d="M 527.184,300.125 C 529.466,297.757 529.742,298.207 532.180,296.130" stroke-width="3.937" stroke="black" fill="none" stroke-linecap="round"></path><path d="M 532.180,296.130 C 535.349,292.970 534.462,294.761 537.176,294.132" stroke-width="4.166" stroke="black" fill="none" stroke-linecap="round"></path><path d="M 537.176,294.132 C 541.351,298.270 540.845,296.466 543.171,303.121" stroke-width="4.477" stroke="black" fill="none" stroke-linecap="round"></path><path d="M 543.171,303.121 C 543.171,306.617 544.349,306.260 543.171,310.112" stroke-width="4.068" stroke="black" fill="none" stroke-linecap="round"></path><path d="M 543.171,310.112 C 543.171,313.608 543.171,313.608 543.171,317.104" stroke-width="4.056" stroke="black" fill="none" stroke-linecap="round"></path><path d="M 543.171,317.104 C 543.171,320.100 543.171,320.100 543.171,323.096" stroke-width="4.081" stroke="black" fill="none" stroke-linecap="round"></path><path d="M 543.171,323.096 C 541.793,326.727 543.171,326.093 543.171,329.089" stroke-width="4.135" stroke="black" fill="none" stroke-linecap="round"></path><path d="M 543.171,329.089 C 546.258,332.849 545.290,332.719 550.166,335.081" stroke-width="4.547" stroke="black" fill="none" stroke-linecap="round"></path><path d="M 550.166,335.081 C 553.590,336.603 553.252,336.844 557.161,337.079" stroke-width="4.049" stroke="black" fill="none" stroke-linecap="round"></path><path d="M 557.161,337.079 C 561.157,337.079 561.084,337.602 565.154,337.079" stroke-width="3.940" stroke="black" fill="none" stroke-linecap="round"></path><path d="M 565.154,337.079 C 569.651,337.079 569.651,337.079 574.147,337.079" stroke-width="3.634" stroke="black" fill="none" stroke-linecap="round"></path><path d="M 574.147,337.079 C 578.644,337.079 578.644,337.079 583.140,337.079" stroke-width="3.665" stroke="black" fill="none" stroke-linecap="round"></path><path d="M 583.140,337.079 C 586.637,337.079 586.637,337.079 590.135,337.079" stroke-width="3.884" stroke="black" fill="none" stroke-linecap="round"></path><path d="M 590.135,337.079 C 593.322,336.277 593.132,337.079 596.130,337.079" stroke-width="4.072" stroke="black" fill="none" stroke-linecap="round"></path><path d="M 596.130,337.079 C 601.663,337.876 600.316,338.274 604.124,341.074" stroke-width="4.529" stroke="black" fill="none" stroke-linecap="round"></path><path d="M 604.124,341.074 C 605.517,345.525 606.659,344.368 606.122,350.063" stroke-width="4.436" stroke="black" fill="none" stroke-linecap="round"></path><path d="M 606.122,350.063 C 605.362,353.269 606.516,353.016 606.122,356.055" stroke-width="4.238" stroke="black" fill="none" stroke-linecap="round"></path><path d="M 606.122,356.055 C 606.793,359.617 606.861,358.763 609.120,361.049" stroke-width="4.158" stroke="black" fill="none" stroke-linecap="round"></path><path d="M 609.120,361.049 C 614.014,363.241 613.288,363.612 619.112,364.045" stroke-width="4.259" stroke="black" fill="none" stroke-linecap="round"></path><path d="M 619.112,364.045 C 623.655,364.513 623.507,364.739 628.105,364.045" stroke-width="3.836" stroke="black" fill="none" stroke-linecap="round"></path><path d="M 628.105,364.045 C 633.112,363.097 633.148,363.515 638.097,362.048" stroke-width="3.607" stroke="black" fill="none" stroke-linecap="round"></path><path d="M 638.097,362.048 C 642.607,361.104 642.604,361.099 647.090,360.050" stroke-width="3.581" stroke="black" fill="none" stroke-linecap="round"></path><path d="M 647.090,360.050 C 651.035,358.631 651.100,359.107 655.084,358.053" stroke-width="3.672" stroke="black" fill="none" stroke-linecap="round"></path><path d="M 655.084,358.053 C 658.176,357.472 658.030,357.632 661.079,358.053" stroke-width="4.000" stroke="black" fill="none" stroke-linecap="round"></path><path d="M 661.079,358.053 C 666.160,358.605 665.670,358.970 670.072,361.049" stroke-width="4.483" stroke="black" fill="none" stroke-linecap="round"></path><path d="M 670.072,361.049 C 672.970,365.993 674.154,363.599 677.067,368.040" stroke-width="4.630" stroke="black" fill="none" stroke-linecap="round"></path><path d="M 677.067,368.040 C 680.652,368.641 679.964,369.488 684.061,368.040" stroke-width="4.159" stroke="black" fill="none" stroke-linecap="round"></path><path d="M 684.061,368.040 C 689.190,366.896 689.146,367.143 694.054,365.044" stroke-width="3.601" stroke="black" fill="none" stroke-linecap="round"></path><path d="M 694.054,365.044 C 699.595,362.644 699.682,362.901 705.045,360.050" stroke-width="3.377" stroke="black" fill="none" stroke-linecap="round"></path><path d="M 705.045,360.050 C 710.102,357.668 710.087,357.650 715.037,355.056" stroke-width="3.375" stroke="black" fill="none" stroke-linecap="round"></path><path d="M 715.037,355.056 C 719.668,353.948 718.596,353.173 722.032,351.061" stroke-width="3.657" stroke="black" fill="none" stroke-linecap="round"></path><path d="M 722.032,351.061 C 725.754,346.176 724.165,348.455 724.030,344.070" stroke-width="4.467" stroke="black" fill="none" stroke-linecap="round"></path><path d="M 724.030,344.070 C 718.695,341.488 721.258,340.683 713.039,340.075" stroke-width="3.539" stroke="black" fill="none" stroke-linecap="round"></path><path d="M 713.039,340.075 C 702.576,337.909 702.708,337.493 692.055,336.080" stroke-width="3.375" stroke="black" fill="none" stroke-linecap="round"></path><path d="M 692.055,336.080 C 679.521,334.324 679.594,333.914 667.075,332.085" stroke-width="3.375" stroke="black" fill="none" stroke-linecap="round"></path><path d="M 667.075,332.085 C 654.455,330.117 654.541,329.830 642.094,327.091" stroke-width="3.375" stroke="black" fill="none" stroke-linecap="round"></path><path d="M 642.094,327.091 C 630.091,323.637 629.974,324.124 618.113,320.100" stroke-width="3.375" stroke="black" fill="none" stroke-linecap="round"></path><path d="M 618.113,320.100 C 608.200,316.808 608.108,317.145 598.128,314.107" stroke-width="3.375" stroke="black" fill="none" stroke-linecap="round"></path><path d="M 598.128,314.107 C 587.802,310.201 587.716,311.315 577.145,309.114" stroke-width="3.375" stroke="black" fill="none" stroke-linecap="round"></path><path d="M 577.145,309.114 C 563.129,308.460 563.321,307.704 549.167,309.114" stroke-width="3.375" stroke="black" fill="none" stroke-linecap="round"></path><path d="M 549.167,309.114 C 531.159,310.388 531.154,309.958 513.195,312.110" stroke-width="3.375" stroke="black" fill="none" stroke-linecap="round"></path><path d="M 513.195,312.110 C 494.726,314.282 494.688,313.884 476.224,316.105" stroke-width="3.375" stroke="black" fill="none" stroke-linecap="round"></path><path d="M 476.224,316.105 C 459.252,317.794 459.254,317.777 442.250,319.101" stroke-width="3.375" stroke="black" fill="none" stroke-linecap="round"></path><path d="M 442.250,319.101 C 426.777,320.564 426.777,320.291 411.274,321.099" stroke-width="3.375" stroke="black" fill="none" stroke-linecap="round"></path><path d="M 411.274,321.099 C 397.785,321.099 397.800,321.563 384.296,321.099" stroke-width="3.375" stroke="black" fill="none" stroke-linecap="round"></path><path d="M 384.296,321.099 C 373.609,322.453 373.804,321.099 363.312,321.099" stroke-width="3.375" stroke="black" fill="none" stroke-linecap="round"></path><path d="M 363.312,321.099 C 354.447,319.464 354.624,319.956 346.325,316.105" stroke-width="3.375" stroke="black" fill="none" stroke-linecap="round"></path><path d="M 346.325,316.105 C 340.097,312.954 339.958,313.472 334.335,309.114" stroke-width="3.375" stroke="black" fill="none" stroke-linecap="round"></path><path d="M 334.335,309.114 C 329.493,305.975 329.605,305.962 325.342,302.122" stroke-width="3.375" stroke="black" fill="none" stroke-linecap="round"></path><path d="M 325.342,302.122 C 320.346,299.463 322.498,299.483 320.346,296.130" stroke-width="3.660" stroke="black" fill="none" stroke-linecap="round"></path><path d="M 320.346,296.130 C 321.407,289.469 320.346,290.974 325.342,285.144" stroke-width="3.970" stroke="black" fill="none" stroke-linecap="round"></path><path d="M 325.342,285.144 C 332.194,278.521 331.400,278.483 340.330,274.157" stroke-width="3.375" stroke="black" fill="none" stroke-linecap="round"></path><path d="M 340.330,274.157 C 353.019,267.821 352.678,267.535 366.310,263.171" stroke-width="3.375" stroke="black" fill="none" stroke-linecap="round"></path><path d="M 366.310,263.171 C 383.074,257.258 382.995,257.334 400.283,253.184" stroke-width="3.375" stroke="black" fill="none" stroke-linecap="round"></path><path d="M 400.283,253.184 C 421.159,248.510 421.044,248.269 442.250,245.194" stroke-width="3.375" stroke="black" fill="none" stroke-linecap="round"></path><path d="M 442.250,245.194 C 465.673,241.627 465.624,241.519 489.214,239.201" stroke-width="3.375" stroke="black" fill="none" stroke-linecap="round"></path><path d="M 489.214,239.201 C 514.164,236.706 514.135,236.633 539.175,235.206" stroke-width="3.375" stroke="black" fill="none" stroke-linecap="round"></path><path d="M 539.175,235.206 C 564.156,234.228 564.125,233.710 589.135,233.209" stroke-width="3.375" stroke="black" fill="none" stroke-linecap="round"></path><path d="M 589.135,233.209 C 613.106,231.711 613.118,232.230 637.098,231.211" stroke-width="3.375" stroke="black" fill="none" stroke-linecap="round"></path><path d="M 637.098,231.211 C 661.079,231.211 661.069,230.712 685.061,231.211" stroke-width="3.375" stroke="black" fill="none" stroke-linecap="round"></path><path d="M 685.061,231.211 C 709.541,231.211 709.541,231.211 734.022,231.211" stroke-width="3.375" stroke="black" fill="none" stroke-linecap="round"></path></svg>