<svg xmlns="http://www.w3.org/2000/svg" xmlns:xlink="http://www.w3.org/1999/xlink" viewBox="267.158000 176.865000 488.924000 167.734000"><path d="M 288.333,208.533 C 292.128,214.338 291.714,214.542 295.094,220.552" stroke-width="5.026" stroke="black" fill="none" stroke-linecap="round"></path><path d="M 295.094,220.552 C 300.680,230.729 300.015,230.863 304.108,241.584" stroke-width="3.375" stroke="black" fill="none" stroke-linecap="round"></path><path d="M 304.108,241.584 C 306.852,252.399 307.440,252.137 308.615,263.369" stroke-width="3.375" stroke="black" fill="none" stroke-linecap="round"></path><path d="M 308.615,263.369 C 310.470,273.484 310.232,273.432 310.869,283.650" stroke-width="3.375" stroke="black" fill="none" stroke-linecap="round"></path><path d="M 310.869,283.650 C 310.898,292.700 311.221,292.639 310.117,301.678" stroke-width="3.375" stroke="black" fill="none" stroke-linecap="round"></path><path d="M 310.117,301.678 C 309.576,310.072 309.396,309.977 307.864,318.204" stroke-width="3.375" stroke="black" fill="none" stroke-linecap="round"></path><path d="M 307.864,318.204 C 306.435,324.406 306.571,324.344 304.108,330.223" stroke-width="3.375" stroke="black" fill="none" stroke-linecap="round"></path><path d="M 304.108,330.223 C 302.943,334.393 302.679,333.796 300.352,336.984" stroke-width="3.584" stroke="black" fill="none" stroke-linecap="round"></path><path d="M 300.352,336.984 C 297.610,339.573 298.436,338.900 295.094,339.237" stroke-width="3.958" stroke="black" fill="none" stroke-linecap="round"></path><path d="M 295.094,339.237 C 291.229,338.190 291.977,338.821 289.084,335.481" stroke-width="3.966" stroke="black" fill="none" stroke-linecap="round"></path><path d="M 289.084,335.481 C 283.485,328.918 284.093,329.176 280.822,321.209" stroke-width="3.375" stroke="black" fill="none" stroke-linecap="round"></path><path d="M 280.822,321.209 C 276.871,307.831 276.348,308.260 274.812,294.167" stroke-width="3.375" stroke="black" fill="none" stroke-linecap="round"></path><path d="M 274.812,294.167 C 272.184,280.230 272.740,280.413 272.559,266.373" stroke-width="3.375" stroke="black" fill="none" stroke-linecap="round"></path><path d="M 272.559,266.373 C 273.686,252.329 272.935,252.436 276.315,238.580" stroke-width="3.375" stroke="black" fill="none" stroke-linecap="round"></path><path d="M 276.315,238.580 C 278.045,226.419 278.569,226.790 282.324,215.293" stroke-width="3.375" stroke="black" fill="none" stroke-linecap="round"></path><path d="M 282.324,215.293 C 286.020,206.807 285.557,206.888 291.338,199.519" stroke-width="3.375" stroke="black" fill="none" stroke-linecap="round"></path><path d="M 291.338,199.519 C 296.178,192.376 296.160,192.910 302.606,187.500" stroke-width="3.375" stroke="black" fill="none" stroke-linecap="round"></path><path d="M 302.606,187.500 C 307.660,184.253 307.070,184.113 313.122,182.993" stroke-width="3.375" stroke="black" fill="none" stroke-linecap="round"></path><path d="M 313.122,182.993 C 317.910,181.891 317.425,182.000 322.136,182.993" stroke-width="3.483" stroke="black" fill="none" stroke-linecap="round"></path><path d="M 322.136,182.993 C 327.086,184.371 326.549,184.144 330.399,187.500" stroke-width="3.578" stroke="black" fill="none" stroke-linecap="round"></path><path d="M 330.399,187.500 C 333.946,191.251 333.847,190.756 335.657,195.763" stroke-width="3.572" stroke="black" fill="none" stroke-linecap="round"></path><path d="M 335.657,195.763 C 338.173,202.434 338.077,202.143 338.662,209.284" stroke-width="3.375" stroke="black" fill="none" stroke-linecap="round"></path><path d="M 338.662,209.284 C 339.156,218.416 339.299,218.208 337.911,227.312" stroke-width="3.375" stroke="black" fill="none" stroke-linecap="round"></path><path d="M 337.911,227.312 C 336.439,237.333 336.527,237.195 333.404,246.843" stroke-width="3.375" stroke="black" fill="none" stroke-linecap="round"></path><path d="M 333.404,246.843 C 330.555,255.012 330.805,254.985 326.643,262.617" stroke-width="3.375" stroke="black" fill="none" stroke-linecap="round"></path><path d="M 326.643,262.617 C 323.621,268.149 323.794,268.158 319.883,273.134" stroke-width="3.375" stroke="black" fill="none" stroke-linecap="round"></path><path d="M 319.883,273.134 C 316.788,277.209 316.861,277.163 313.122,280.646" stroke-width="3.375" stroke="black" fill="none" stroke-linecap="round"></path><path d="M 313.122,280.646 C 310.520,282.563 310.778,282.843 307.864,284.401" stroke-width="3.815" stroke="black" fill="none" stroke-linecap="round"></path><path d="M 307.864,284.401 C 303.001,286.694 305.637,285.943 303.357,287.406" stroke-width="4.486" stroke="black" fill="none" stroke-linecap="round"></path><path d="M 303.357,287.406 C 306.404,287.002 303.752,288.196 309.366,287.406" stroke-width="4.848" stroke="black" fill="none" stroke-linecap="round"></path><path d="M 309.366,287.406 C 314.785,288.015 314.667,288.129 319.883,289.660" stroke-width="3.704" stroke="black" fill="none" stroke-linecap="round"></path><path d="M 319.883,289.660 C 326.496,291.840 326.428,291.771 332.653,294.918" stroke-width="3.375" stroke="black" fill="none" stroke-linecap="round"></path><path d="M 332.653,294.918 C 337.799,297.568 337.764,297.473 342.418,300.927" stroke-width="3.375" stroke="black" fill="none" stroke-linecap="round"></path><path d="M 342.418,300.927 C 346.111,303.650 346.062,303.577 349.178,306.937" stroke-width="3.510" stroke="black" fill="none" stroke-linecap="round"></path><path d="M 349.178,306.937 C 351.505,309.337 351.369,309.284 352.934,312.195" stroke-width="3.888" stroke="black" fill="none" stroke-linecap="round"></path><path d="M 393.498,275.387 C 389.498,280.104 389.742,280.270 385.986,285.153" stroke-width="5.245" stroke="black" fill="none" stroke-linecap="round"></path><path d="M 385.986,285.153 C 383.343,288.729 383.489,288.742 381.479,292.664" stroke-width="4.069" stroke="black" fill="none" stroke-linecap="round"></path><path d="M 381.479,292.664 C 379.012,296.224 379.963,295.865 379.225,299.425" stroke-width="3.995" stroke="black" fill="none" stroke-linecap="round"></path><path d="M 379.225,299.425 C 380.141,304.164 379.388,301.858 382.230,303.932" stroke-width="4.546" stroke="black" fill="none" stroke-linecap="round"></path><path d="M 382.230,303.932 C 387.891,301.454 386.901,303.413 392.746,297.923" stroke-width="4.235" stroke="black" fill="none" stroke-linecap="round"></path><path d="M 392.746,297.923 C 396.093,295.190 396.154,295.445 398.756,291.913" stroke-width="3.884" stroke="black" fill="none" stroke-linecap="round"></path><path d="M 398.756,291.913 C 401.028,289.084 400.976,289.181 402.512,285.904" stroke-width="3.944" stroke="black" fill="none" stroke-linecap="round"></path><path d="M 402.512,285.904 C 404.905,281.180 403.657,283.450 404.014,280.646" stroke-width="4.522" stroke="black" fill="none" stroke-linecap="round"></path><path d="M 404.014,280.646 C 401.209,281.898 403.027,280.053 398.756,283.650" stroke-width="4.696" stroke="black" fill="none" stroke-linecap="round"></path><path d="M 398.756,283.650 C 392.566,289.089 395.951,285.654 393.498,288.157" stroke-width="4.663" stroke="black" fill="none" stroke-linecap="round"></path><path d="M 393.498,288.157 C 398.841,282.544 395.571,286.084 404.765,277.641" stroke-width="4.050" stroke="black" fill="none" stroke-linecap="round"></path><path d="M 404.765,277.641 C 409.997,273.848 409.733,273.530 415.282,270.129" stroke-width="3.412" stroke="black" fill="none" stroke-linecap="round"></path><path d="M 415.282,270.129 C 419.883,266.185 420.138,266.712 425.047,263.369" stroke-width="3.375" stroke="black" fill="none" stroke-linecap="round"></path><path d="M 425.047,263.369 C 429.179,259.965 428.146,261.678 431.807,261.115" stroke-width="3.708" stroke="black" fill="none" stroke-linecap="round"></path><path d="M 431.807,261.115 C 435.488,264.486 435.189,262.594 437.066,268.627" stroke-width="4.186" stroke="black" fill="none" stroke-linecap="round"></path><path d="M 437.066,268.627 C 437.644,272.749 438.493,272.373 437.817,276.890" stroke-width="3.837" stroke="black" fill="none" stroke-linecap="round"></path><path d="M 437.817,276.890 C 438.020,281.781 438.020,281.763 437.817,286.655" stroke-width="3.648" stroke="black" fill="none" stroke-linecap="round"></path><path d="M 437.817,286.655 C 437.711,290.832 437.644,290.796 437.066,294.918" stroke-width="3.739" stroke="black" fill="none" stroke-linecap="round"></path><path d="M 437.066,294.918 C 436.756,298.095 436.584,297.968 435.563,300.927" stroke-width="4.000" stroke="black" fill="none" stroke-linecap="round"></path><path d="M 435.563,300.927 C 434.093,305.920 433.751,305.231 431.056,309.190" stroke-width="4.256" stroke="black" fill="none" stroke-linecap="round"></path><path d="M 431.056,309.190 C 428.535,310.714 429.211,311.178 425.798,311.444" stroke-width="4.223" stroke="black" fill="none" stroke-linecap="round"></path><path d="M 425.798,311.444 C 422.793,312.195 422.901,312.216 419.789,312.195" stroke-width="4.122" stroke="black" fill="none" stroke-linecap="round"></path><path d="M 419.789,312.195 C 416.555,312.435 416.784,312.195 413.779,311.444" stroke-width="4.140" stroke="black" fill="none" stroke-linecap="round"></path><path d="M 413.779,311.444 C 410.438,310.603 411.297,310.557 409.272,308.439" stroke-width="4.227" stroke="black" fill="none" stroke-linecap="round"></path><path d="M 409.272,308.439 C 406.985,304.422 407.809,305.721 408.521,301.678" stroke-width="4.027" stroke="black" fill="none" stroke-linecap="round"></path><path d="M 408.521,301.678 C 413.094,294.225 412.243,295.033 419.789,289.660" stroke-width="3.375" stroke="black" fill="none" stroke-linecap="round"></path><path d="M 419.789,289.660 C 430.442,283.830 429.619,282.957 441.573,279.143" stroke-width="3.375" stroke="black" fill="none" stroke-linecap="round"></path><path d="M 441.573,279.143 C 451.958,274.944 451.850,274.816 462.606,271.631" stroke-width="3.375" stroke="black" fill="none" stroke-linecap="round"></path><path d="M 462.606,271.631 C 468.952,269.912 468.860,269.686 475.376,268.627" stroke-width="3.375" stroke="black" fill="none" stroke-linecap="round"></path><path d="M 475.376,268.627 C 481.508,266.282 478.341,268.034 481.385,267.876" stroke-width="3.670" stroke="black" fill="none" stroke-linecap="round"></path><path d="M 481.385,267.876 C 478.394,273.432 481.132,271.165 474.624,278.392" stroke-width="4.352" stroke="black" fill="none" stroke-linecap="round"></path><path d="M 474.624,278.392 C 470.705,282.389 471.258,282.822 467.113,286.655" stroke-width="3.635" stroke="black" fill="none" stroke-linecap="round"></path><path d="M 467.113,286.655 C 460.991,292.540 464.696,289.525 462.606,292.664" stroke-width="3.817" stroke="black" fill="none" stroke-linecap="round"></path><path d="M 462.606,292.664 C 470.535,291.324 465.874,292.916 476.878,287.406" stroke-width="4.316" stroke="black" fill="none" stroke-linecap="round"></path><path d="M 476.878,287.406 C 482.577,282.216 483.305,283.436 488.146,276.890" stroke-width="3.375" stroke="black" fill="none" stroke-linecap="round"></path><path d="M 488.146,276.890 C 493.711,271.547 491.216,273.953 494.155,270.880" stroke-width="3.588" stroke="black" fill="none" stroke-linecap="round"></path><path d="M 494.155,270.880 C 491.566,272.444 494.462,270.420 489.648,274.636" stroke-width="4.491" stroke="black" fill="none" stroke-linecap="round"></path><path d="M 489.648,274.636 C 486.135,278.482 486.308,278.454 483.638,282.899" stroke-width="3.759" stroke="black" fill="none" stroke-linecap="round"></path><path d="M 483.638,282.899 C 481.045,287.263 481.252,287.121 479.883,291.913" stroke-width="3.627" stroke="black" fill="none" stroke-linecap="round"></path><path d="M 479.883,291.913 C 477.897,296.404 479.167,294.775 479.883,297.923" stroke-width="3.938" stroke="black" fill="none" stroke-linecap="round"></path><path d="M 479.883,297.923 C 486.171,301.678 484.282,301.286 492.653,301.678" stroke-width="4.011" stroke="black" fill="none" stroke-linecap="round"></path><path d="M 492.653,301.678 C 502.863,300.120 502.697,301.678 512.934,297.923" stroke-width="3.375" stroke="black" fill="none" stroke-linecap="round"></path><path d="M 512.934,297.923 C 523.414,295.138 523.520,295.613 533.967,292.664" stroke-width="3.375" stroke="black" fill="none" stroke-linecap="round"></path><path d="M 585.047,195.012 C 587.890,203.913 586.925,204.026 588.803,213.040" stroke-width="4.781" stroke="black" fill="none" stroke-linecap="round"></path><path d="M 588.803,213.040 C 590.633,226.706 590.144,226.448 589.554,240.082" stroke-width="3.375" stroke="black" fill="none" stroke-linecap="round"></path><path d="M 589.554,240.082 C 588.316,250.213 588.755,249.993 585.047,259.613" stroke-width="3.375" stroke="black" fill="none" stroke-linecap="round"></path><path d="M 585.047,259.613 C 581.291,267.124 582.307,267.490 577.535,274.636" stroke-width="3.375" stroke="black" fill="none" stroke-linecap="round"></path><path d="M 577.535,274.636 C 575.028,280.964 574.531,280.646 571.526,286.655" stroke-width="3.375" stroke="black" fill="none" stroke-linecap="round"></path><path d="M 571.526,286.655 C 568.886,290.797 569.019,290.729 565.516,294.167" stroke-width="3.375" stroke="black" fill="none" stroke-linecap="round"></path><path d="M 565.516,294.167 C 563.195,297.005 563.253,296.430 560.258,297.923" stroke-width="3.793" stroke="black" fill="none" stroke-linecap="round"></path><path d="M 560.258,297.923 C 555.939,299.347 557.186,298.883 553.498,297.923" stroke-width="4.381" stroke="black" fill="none" stroke-linecap="round"></path><path d="M 553.498,297.923 C 551.660,295.439 551.432,296.717 551.244,292.664" stroke-width="4.259" stroke="black" fill="none" stroke-linecap="round"></path><path d="M 551.244,292.664 C 550.496,287.685 550.534,287.928 551.244,282.899" stroke-width="3.692" stroke="black" fill="none" stroke-linecap="round"></path><path d="M 551.244,282.899 C 552.062,275.286 552.374,275.666 555.000,268.627" stroke-width="3.375" stroke="black" fill="none" stroke-linecap="round"></path><path d="M 555.000,268.627 C 557.935,262.154 557.696,262.516 562.512,257.359" stroke-width="3.375" stroke="black" fill="none" stroke-linecap="round"></path><path d="M 562.512,257.359 C 566.301,253.728 565.822,253.891 570.775,252.101" stroke-width="3.379" stroke="black" fill="none" stroke-linecap="round"></path><path d="M 570.775,252.101 C 575.026,250.803 574.564,250.723 579.038,251.350" stroke-width="3.650" stroke="black" fill="none" stroke-linecap="round"></path><path d="M 579.038,251.350 C 583.631,252.083 583.289,251.929 587.300,254.354" stroke-width="3.690" stroke="black" fill="none" stroke-linecap="round"></path><path d="M 587.300,254.354 C 591.549,257.308 591.518,256.965 594.812,261.115" stroke-width="3.517" stroke="black" fill="none" stroke-linecap="round"></path><path d="M 594.812,261.115 C 598.008,265.507 598.310,265.196 600.822,270.129" stroke-width="3.460" stroke="black" fill="none" stroke-linecap="round"></path><path d="M 600.822,270.129 C 603.226,274.186 603.266,274.145 605.329,278.392" stroke-width="3.571" stroke="black" fill="none" stroke-linecap="round"></path><path d="M 605.329,278.392 C 606.769,281.801 606.982,281.698 608.333,285.153" stroke-width="3.759" stroke="black" fill="none" stroke-linecap="round"></path><path d="M 608.333,285.153 C 609.005,287.761 609.399,287.435 610.587,289.660" stroke-width="4.147" stroke="black" fill="none" stroke-linecap="round"></path><path d="M 610.587,289.660 C 612.756,293.725 612.761,292.268 615.845,294.167" stroke-width="4.486" stroke="black" fill="none" stroke-linecap="round"></path><path d="M 615.845,294.167 C 621.797,294.431 620.643,294.852 626.361,291.913" stroke-width="4.335" stroke="black" fill="none" stroke-linecap="round"></path><path d="M 626.361,291.913 C 632.717,287.693 632.689,288.422 637.629,282.148" stroke-width="3.375" stroke="black" fill="none" stroke-linecap="round"></path><path d="M 637.629,282.148 C 644.544,274.400 644.361,274.548 649.648,265.622" stroke-width="3.375" stroke="black" fill="none" stroke-linecap="round"></path><path d="M 649.648,265.622 C 653.706,257.953 653.934,258.250 656.408,249.847" stroke-width="3.375" stroke="black" fill="none" stroke-linecap="round"></path><path d="M 656.408,249.847 C 658.175,243.134 658.589,243.305 659.413,236.326" stroke-width="3.375" stroke="black" fill="none" stroke-linecap="round"></path><path d="M 659.413,236.326 C 660.264,230.704 660.429,230.739 660.915,225.059" stroke-width="3.375" stroke="black" fill="none" stroke-linecap="round"></path><path d="M 660.915,225.059 C 661.052,220.890 661.391,220.938 661.667,216.796" stroke-width="3.596" stroke="black" fill="none" stroke-linecap="round"></path><path d="M 661.667,216.796 C 662.330,213.393 662.179,213.378 663.169,210.035" stroke-width="3.821" stroke="black" fill="none" stroke-linecap="round"></path><path d="M 663.169,210.035 C 665.826,204.921 663.832,207.384 664.671,204.777" stroke-width="4.115" stroke="black" fill="none" stroke-linecap="round"></path><path d="M 664.671,204.777 C 660.387,206.369 662.821,204.546 657.160,209.284" stroke-width="4.755" stroke="black" fill="none" stroke-linecap="round"></path><path d="M 657.160,209.284 C 649.067,217.360 648.743,216.886 641.385,225.810" stroke-width="3.375" stroke="black" fill="none" stroke-linecap="round"></path><path d="M 641.385,225.810 C 634.378,234.189 634.043,233.886 627.113,242.336" stroke-width="3.375" stroke="black" fill="none" stroke-linecap="round"></path><path d="M 627.113,242.336 C 621.928,248.040 621.984,248.086 616.596,253.603" stroke-width="3.375" stroke="black" fill="none" stroke-linecap="round"></path><path d="M 616.596,253.603 C 613.503,257.344 613.289,257.054 609.836,260.364" stroke-width="3.375" stroke="black" fill="none" stroke-linecap="round"></path><path d="M 609.836,260.364 C 607.033,262.717 607.118,262.602 603.826,264.120" stroke-width="3.732" stroke="black" fill="none" stroke-linecap="round"></path><path d="M 603.826,264.120 C 600.867,265.241 601.023,265.346 597.817,265.622" stroke-width="3.997" stroke="black" fill="none" stroke-linecap="round"></path><path d="M 597.817,265.622 C 594.729,266.138 594.858,265.992 591.807,265.622" stroke-width="4.061" stroke="black" fill="none" stroke-linecap="round"></path><path d="M 591.807,265.622 C 588.206,264.948 588.344,265.011 585.047,263.369" stroke-width="3.992" stroke="black" fill="none" stroke-linecap="round"></path><path d="M 585.047,263.369 C 581.110,261.685 581.445,261.568 578.286,258.861" stroke-width="3.860" stroke="black" fill="none" stroke-linecap="round"></path><path d="M 578.286,258.861 C 574.655,255.508 575.100,255.675 573.028,251.350" stroke-width="3.657" stroke="black" fill="none" stroke-linecap="round"></path><path d="M 573.028,251.350 C 570.694,246.299 571.275,246.869 571.526,241.584" stroke-width="3.587" stroke="black" fill="none" stroke-linecap="round"></path><path d="M 571.526,241.584 C 573.178,232.910 572.947,233.529 577.535,225.810" stroke-width="3.375" stroke="black" fill="none" stroke-linecap="round"></path><path d="M 577.535,225.810 C 583.680,216.119 583.319,216.384 591.807,208.533" stroke-width="3.375" stroke="black" fill="none" stroke-linecap="round"></path><path d="M 591.807,208.533 C 601.019,200.452 600.581,200.344 611.338,194.261" stroke-width="3.375" stroke="black" fill="none" stroke-linecap="round"></path><path d="M 611.338,194.261 C 620.023,189.040 619.798,189.185 629.366,185.998" stroke-width="3.375" stroke="black" fill="none" stroke-linecap="round"></path><path d="M 629.366,185.998 C 636.572,183.536 636.173,183.781 643.638,183.744" stroke-width="3.375" stroke="black" fill="none" stroke-linecap="round"></path><path d="M 643.638,183.744 C 649.918,184.063 649.342,183.912 654.906,186.749" stroke-width="3.375" stroke="black" fill="none" stroke-linecap="round"></path><path d="M 654.906,186.749 C 660.283,189.677 659.683,189.321 663.169,194.261" stroke-width="3.375" stroke="black" fill="none" stroke-linecap="round"></path><path d="M 663.169,194.261 C 666.493,200.437 666.668,199.818 667.676,207.031" stroke-width="3.375" stroke="black" fill="none" stroke-linecap="round"></path><path d="M 667.676,207.031 C 669.581,215.480 669.122,215.085 668.427,223.556" stroke-width="3.375" stroke="black" fill="none" stroke-linecap="round"></path><path d="M 668.427,223.556 C 667.011,234.469 666.952,233.884 662.418,243.838" stroke-width="3.375" stroke="black" fill="none" stroke-linecap="round"></path><path d="M 662.418,243.838 C 656.536,253.256 657.621,253.624 649.648,261.866" stroke-width="3.375" stroke="black" fill="none" stroke-linecap="round"></path><path d="M 649.648,261.866 C 643.393,270.797 643.015,270.157 635.376,277.641" stroke-width="3.375" stroke="black" fill="none" stroke-linecap="round"></path><path d="M 635.376,277.641 C 627.481,283.626 627.993,283.943 618.850,288.157" stroke-width="3.375" stroke="black" fill="none" stroke-linecap="round"></path><path d="M 618.850,288.157 C 612.268,291.740 612.457,291.513 605.329,293.415" stroke-width="3.375" stroke="black" fill="none" stroke-linecap="round"></path><path d="M 605.329,293.415 C 600.800,294.514 601.376,294.370 597.066,293.415" stroke-width="3.406" stroke="black" fill="none" stroke-linecap="round"></path><path d="M 597.066,293.415 C 593.547,292.130 594.415,292.636 592.559,289.660" stroke-width="3.914" stroke="black" fill="none" stroke-linecap="round"></path><path d="M 592.559,289.660 C 591.219,285.498 591.293,286.496 592.559,282.148" stroke-width="3.905" stroke="black" fill="none" stroke-linecap="round"></path><path d="M 592.559,282.148 C 595.411,275.690 594.974,276.108 600.070,270.880" stroke-width="3.375" stroke="black" fill="none" stroke-linecap="round"></path><path d="M 600.070,270.880 C 607.083,262.938 607.054,263.671 615.845,258.110" stroke-width="3.375" stroke="black" fill="none" stroke-linecap="round"></path><path d="M 615.845,258.110 C 626.080,252.228 625.487,252.797 636.878,250.599" stroke-width="3.375" stroke="black" fill="none" stroke-linecap="round"></path><path d="M 636.878,250.599 C 646.788,249.626 645.986,249.224 655.657,252.101" stroke-width="3.375" stroke="black" fill="none" stroke-linecap="round"></path><path d="M 655.657,252.101 C 663.250,254.832 662.939,254.133 669.178,259.613" stroke-width="3.375" stroke="black" fill="none" stroke-linecap="round"></path><path d="M 669.178,259.613 C 675.361,264.558 674.893,264.221 678.944,270.880" stroke-width="3.375" stroke="black" fill="none" stroke-linecap="round"></path><path d="M 678.944,270.880 C 681.079,276.413 681.746,275.825 681.948,282.148" stroke-width="3.375" stroke="black" fill="none" stroke-linecap="round"></path><path d="M 681.948,282.148 C 682.892,288.926 682.957,288.807 682.700,295.669" stroke-width="3.375" stroke="black" fill="none" stroke-linecap="round"></path><path d="M 682.700,295.669 C 681.197,302.057 682.517,302.071 681.197,308.439" stroke-width="3.375" stroke="black" fill="none" stroke-linecap="round"></path><path d="M 681.197,308.439 C 679.844,315.638 681.197,314.451 682.700,320.458" stroke-width="3.375" stroke="black" fill="none" stroke-linecap="round"></path><path d="M 682.700,320.458 C 687.100,326.546 685.853,325.779 693.216,328.721" stroke-width="3.375" stroke="black" fill="none" stroke-linecap="round"></path><path d="M 693.216,328.721 C 704.828,332.628 704.002,332.556 716.502,332.476" stroke-width="3.375" stroke="black" fill="none" stroke-linecap="round"></path><path d="M 716.502,332.476 C 733.790,330.303 733.749,332.253 751.056,327.969" stroke-width="3.375" stroke="black" fill="none" stroke-linecap="round"></path></svg>