<svg xmlns="http://www.w3.org/2000/svg" xmlns:xlink="http://www.w3.org/1999/xlink" viewBox="484.777000 -14.810000 264.270000 239.362000"><path d="M 621.854,220.552 C 615.520,211.741 615.845,211.538 609.836,202.523" stroke-width="3.990" stroke="black" fill="none" stroke-linecap="round"></path><path d="M 609.836,202.523 C 601.714,189.133 601.623,189.205 594.061,175.481" stroke-width="3.375" stroke="black" fill="none" stroke-linecap="round"></path><path d="M 594.061,175.481 C 588.017,164.232 587.818,164.344 582.042,152.946" stroke-width="3.375" stroke="black" fill="none" stroke-linecap="round"></path><path d="M 582.042,152.946 C 574.754,138.551 574.496,138.692 567.019,124.401" stroke-width="3.375" stroke="black" fill="none" stroke-linecap="round"></path><path d="M 567.019,124.401 C 559.319,110.395 559.355,110.382 551.244,96.608" stroke-width="3.375" stroke="black" fill="none" stroke-linecap="round"></path><path d="M 551.244,96.608 C 544.162,83.930 543.920,84.104 536.221,71.819" stroke-width="3.375" stroke="black" fill="none" stroke-linecap="round"></path><path d="M 536.221,71.819 C 528.650,61.344 529.139,61.020 521.197,50.786" stroke-width="3.375" stroke="black" fill="none" stroke-linecap="round"></path><path d="M 521.197,50.786 C 515.213,42.130 515.129,42.189 509.178,33.509" stroke-width="3.375" stroke="black" fill="none" stroke-linecap="round"></path><path d="M 509.178,33.509 C 504.547,27.209 504.697,27.107 500.164,20.739" stroke-width="3.375" stroke="black" fill="none" stroke-linecap="round"></path><path d="M 500.164,20.739 C 497.094,15.231 496.659,15.565 493.404,10.223" stroke-width="3.375" stroke="black" fill="none" stroke-linecap="round"></path><path d="M 493.404,10.223 C 489.904,4.847 491.836,8.095 489.648,6.467" stroke-width="3.793" stroke="black" fill="none" stroke-linecap="round"></path><path d="M 489.648,6.467 C 489.099,15.743 488.777,11.984 491.150,24.495" stroke-width="4.037" stroke="black" fill="none" stroke-linecap="round"></path><path d="M 491.150,24.495 C 495.206,39.836 494.733,39.781 500.915,54.542" stroke-width="3.375" stroke="black" fill="none" stroke-linecap="round"></path><path d="M 500.915,54.542 C 508.129,71.583 507.600,71.761 515.939,88.345" stroke-width="3.375" stroke="black" fill="none" stroke-linecap="round"></path><path d="M 515.939,88.345 C 523.131,104.877 523.528,104.634 531.714,120.646" stroke-width="3.375" stroke="black" fill="none" stroke-linecap="round"></path><path d="M 531.714,120.646 C 539.411,134.553 539.281,134.548 548.239,147.688" stroke-width="3.375" stroke="black" fill="none" stroke-linecap="round"></path><path d="M 548.239,147.688 C 554.357,158.103 554.810,157.464 562.512,166.467" stroke-width="3.375" stroke="black" fill="none" stroke-linecap="round"></path><path d="M 562.512,166.467 C 569.384,173.346 569.005,173.126 577.535,177.735" stroke-width="3.375" stroke="black" fill="none" stroke-linecap="round"></path><path d="M 577.535,177.735 C 584.569,181.871 584.032,181.233 591.807,182.242" stroke-width="3.375" stroke="black" fill="none" stroke-linecap="round"></path><path d="M 591.807,182.242 C 600.631,183.026 599.217,182.622 606.831,179.237" stroke-width="3.375" stroke="black" fill="none" stroke-linecap="round"></path><path d="M 606.831,179.237 C 614.046,173.265 614.152,174.763 618.850,165.716" stroke-width="3.375" stroke="black" fill="none" stroke-linecap="round"></path><path d="M 618.850,165.716 C 624.892,156.400 624.562,156.740 627.864,146.185" stroke-width="3.375" stroke="black" fill="none" stroke-linecap="round"></path><path d="M 627.864,146.185 C 631.073,135.235 630.902,135.743 630.869,124.401" stroke-width="3.375" stroke="black" fill="none" stroke-linecap="round"></path><path d="M 630.869,124.401 C 631.060,114.269 630.697,115.329 627.113,106.373" stroke-width="3.375" stroke="black" fill="none" stroke-linecap="round"></path><path d="M 627.113,106.373 C 623.048,97.470 623.924,99.997 616.596,95.857" stroke-width="3.375" stroke="black" fill="none" stroke-linecap="round"></path><path d="M 616.596,95.857 C 606.006,95.090 608.024,93.714 597.066,98.861" stroke-width="3.375" stroke="black" fill="none" stroke-linecap="round"></path><path d="M 597.066,98.861 C 581.832,106.199 581.969,105.230 568.521,116.138" stroke-width="3.375" stroke="black" fill="none" stroke-linecap="round"></path><path d="M 568.521,116.138 C 553.986,127.902 553.663,127.232 540.728,140.927" stroke-width="3.375" stroke="black" fill="none" stroke-linecap="round"></path><path d="M 540.728,140.927 C 532.994,149.396 532.577,148.935 525.704,158.204" stroke-width="3.375" stroke="black" fill="none" stroke-linecap="round"></path><path d="M 525.704,158.204 C 521.799,163.612 523.980,160.288 522.700,162.711" stroke-width="3.375" stroke="black" fill="none" stroke-linecap="round"></path><path d="M 522.700,162.711 C 527.286,156.801 525.179,160.232 532.465,151.444" stroke-width="3.375" stroke="black" fill="none" stroke-linecap="round"></path><path d="M 532.465,151.444 C 548.606,133.723 549.070,134.266 566.268,117.641" stroke-width="3.375" stroke="black" fill="none" stroke-linecap="round"></path><path d="M 566.268,117.641 C 594.092,90.554 594.804,91.657 624.859,67.312" stroke-width="3.375" stroke="black" fill="none" stroke-linecap="round"></path><path d="M 624.859,67.312 C 664.148,39.446 663.200,38.348 704.484,13.228" stroke-width="3.375" stroke="black" fill="none" stroke-linecap="round"></path><path d="M 704.484,13.228 C 725.166,1.852 724.242,0.385 745.047,-10.810" stroke-width="3.375" stroke="black" fill="none" stroke-linecap="round"></path></svg>