<svg xmlns="http://www.w3.org/2000/svg" xmlns:xlink="http://www.w3.org/1999/xlink" viewBox="112.400000 316.647000 393.864000 159.086000"><path d="M 172.779,394.013 C 172.627,397.683 172.779,397.678 172.779,401.342" stroke-width="5.092" stroke="black" fill="none" stroke-linecap="round"></path><path d="M 172.779,401.342 C 173.125,405.673 172.960,405.679 173.445,410.005" stroke-width="4.049" stroke="black" fill="none" stroke-linecap="round"></path><path d="M 173.445,410.005 C 173.766,414.670 173.791,414.668 174.111,419.333" stroke-width="3.686" stroke="black" fill="none" stroke-linecap="round"></path><path d="M 174.111,419.333 C 174.417,423.667 174.432,423.665 174.778,427.996" stroke-width="3.848" stroke="black" fill="none" stroke-linecap="round"></path><path d="M 174.778,427.996 C 175.078,431.664 175.083,431.663 175.444,435.325" stroke-width="4.183" stroke="black" fill="none" stroke-linecap="round"></path><path d="M 175.444,435.325 C 175.794,438.322 175.744,438.327 176.110,441.322" stroke-width="4.204" stroke="black" fill="none" stroke-linecap="round"></path><path d="M 176.110,441.322 C 176.426,444.656 176.460,444.652 176.776,447.986" stroke-width="4.246" stroke="black" fill="none" stroke-linecap="round"></path><path d="M 176.776,447.986 C 176.972,451.005 177.092,450.986 177.442,453.983" stroke-width="4.132" stroke="black" fill="none" stroke-linecap="round"></path><path d="M 177.442,453.983 C 177.912,457.367 177.971,457.336 178.774,460.646" stroke-width="4.098" stroke="black" fill="none" stroke-linecap="round"></path><path d="M 178.774,460.646 C 179.773,463.645 179.577,463.697 180.773,466.643" stroke-width="4.052" stroke="black" fill="none" stroke-linecap="round"></path><path d="M 117.492,385.350 C 122.605,380.722 122.821,381.019 128.150,376.688" stroke-width="5.226" stroke="black" fill="none" stroke-linecap="round"></path><path d="M 128.150,376.688 C 133.600,372.642 133.596,372.726 139.474,369.358" stroke-width="3.874" stroke="black" fill="none" stroke-linecap="round"></path><path d="M 139.474,369.358 C 144.998,366.348 144.924,366.312 150.798,364.028" stroke-width="3.785" stroke="black" fill="none" stroke-linecap="round"></path><path d="M 150.798,364.028 C 156.676,361.558 156.655,361.684 162.788,360.030" stroke-width="3.435" stroke="black" fill="none" stroke-linecap="round"></path><path d="M 162.788,360.030 C 168.766,358.915 168.666,358.560 174.778,358.031" stroke-width="3.375" stroke="black" fill="none" stroke-linecap="round"></path><path d="M 174.778,358.031 C 180.086,357.032 180.090,357.249 185.435,356.698" stroke-width="3.375" stroke="black" fill="none" stroke-linecap="round"></path><path d="M 185.435,356.698 C 190.787,356.356 190.744,356.366 196.093,356.698" stroke-width="3.464" stroke="black" fill="none" stroke-linecap="round"></path><path d="M 196.093,356.698 C 201.129,357.145 201.112,357.022 206.085,358.031" stroke-width="3.511" stroke="black" fill="none" stroke-linecap="round"></path><path d="M 206.085,358.031 C 210.506,358.739 210.454,358.811 214.744,360.030" stroke-width="3.685" stroke="black" fill="none" stroke-linecap="round"></path><path d="M 214.744,360.030 C 218.210,361.097 218.166,361.071 221.405,362.695" stroke-width="3.915" stroke="black" fill="none" stroke-linecap="round"></path><path d="M 221.405,362.695 C 224.474,363.907 224.205,364.095 226.734,366.027" stroke-width="4.163" stroke="black" fill="none" stroke-linecap="round"></path><path d="M 226.734,366.027 C 230.633,368.875 229.803,368.904 232.063,372.690" stroke-width="4.373" stroke="black" fill="none" stroke-linecap="round"></path><path d="M 232.063,372.690 C 232.939,377.402 233.631,376.871 232.729,382.019" stroke-width="4.380" stroke="black" fill="none" stroke-linecap="round"></path><path d="M 232.729,382.019 C 232.434,384.830 232.606,384.731 231.397,387.349" stroke-width="4.368" stroke="black" fill="none" stroke-linecap="round"></path><path d="M 231.397,387.349 C 230.129,390.648 230.103,390.494 228.067,393.346" stroke-width="4.110" stroke="black" fill="none" stroke-linecap="round"></path><path d="M 228.067,393.346 C 225.621,396.273 225.800,396.312 222.738,398.677" stroke-width="4.007" stroke="black" fill="none" stroke-linecap="round"></path><path d="M 222.738,398.677 C 219.592,401.332 219.626,401.271 216.077,403.341" stroke-width="3.913" stroke="black" fill="none" stroke-linecap="round"></path><path d="M 216.077,403.341 C 212.471,405.150 212.597,405.330 208.749,406.673" stroke-width="3.895" stroke="black" fill="none" stroke-linecap="round"></path><path d="M 208.749,406.673 C 205.119,408.106 205.144,408.148 201.422,409.338" stroke-width="3.916" stroke="black" fill="none" stroke-linecap="round"></path><path d="M 201.422,409.338 C 198.167,410.745 198.125,410.438 194.761,411.337" stroke-width="3.969" stroke="black" fill="none" stroke-linecap="round"></path><path d="M 194.761,411.337 C 190.394,412.199 190.507,412.077 186.102,412.004" stroke-width="4.331" stroke="black" fill="none" stroke-linecap="round"></path><path d="M 186.102,412.004 C 179.585,410.149 183.066,411.866 180.107,410.671" stroke-width="4.804" stroke="black" fill="none" stroke-linecap="round"></path><path d="M 180.107,410.671 C 184.752,412.183 180.917,411.482 188.766,414.669" stroke-width="5.114" stroke="black" fill="none" stroke-linecap="round"></path><path d="M 188.766,414.669 C 191.597,416.835 191.746,416.515 194.095,419.333" stroke-width="4.357" stroke="black" fill="none" stroke-linecap="round"></path><path d="M 194.095,419.333 C 196.587,421.873 196.593,421.832 198.758,424.664" stroke-width="4.318" stroke="black" fill="none" stroke-linecap="round"></path><path d="M 198.758,424.664 C 201.166,427.944 201.250,427.870 203.420,431.327" stroke-width="3.756" stroke="black" fill="none" stroke-linecap="round"></path><path d="M 203.420,431.327 C 205.875,434.919 205.829,434.941 208.083,438.657" stroke-width="3.733" stroke="black" fill="none" stroke-linecap="round"></path><path d="M 208.083,438.657 C 210.358,442.197 210.205,442.249 212.080,445.987" stroke-width="3.707" stroke="black" fill="none" stroke-linecap="round"></path><path d="M 212.080,445.987 C 213.357,449.673 213.688,449.527 214.744,453.316" stroke-width="3.810" stroke="black" fill="none" stroke-linecap="round"></path><path d="M 214.744,453.316 C 216.169,456.614 216.021,456.669 217.409,459.980" stroke-width="3.911" stroke="black" fill="none" stroke-linecap="round"></path><path d="M 217.409,459.980 C 218.299,463.020 218.501,462.944 219.407,465.977" stroke-width="4.042" stroke="black" fill="none" stroke-linecap="round"></path><path d="M 219.407,465.977 C 220.389,468.317 220.297,468.350 221.405,470.641" stroke-width="4.153" stroke="black" fill="none" stroke-linecap="round"></path><path d="M 250.048,419.333 C 250.650,423.011 250.714,422.998 251.380,426.663" stroke-width="5.451" stroke="black" fill="none" stroke-linecap="round"></path><path d="M 251.380,426.663 C 252.164,429.640 251.983,429.674 252.713,432.660" stroke-width="4.400" stroke="black" fill="none" stroke-linecap="round"></path><path d="M 212.746,406.007 C 215.006,402.252 215.410,402.675 218.075,399.343" stroke-width="5.365" stroke="black" fill="none" stroke-linecap="round"></path><path d="M 218.075,399.343 C 221.612,396.485 221.334,396.255 225.402,394.013" stroke-width="4.588" stroke="black" fill="none" stroke-linecap="round"></path><path d="M 225.402,394.013 C 229.212,391.280 229.273,391.488 233.395,389.348" stroke-width="4.087" stroke="black" fill="none" stroke-linecap="round"></path><path d="M 233.395,389.348 C 237.952,387.289 237.872,387.282 242.721,386.017" stroke-width="3.755" stroke="black" fill="none" stroke-linecap="round"></path><path d="M 242.721,386.017 C 248.007,384.669 247.943,384.624 253.379,384.018" stroke-width="3.723" stroke="black" fill="none" stroke-linecap="round"></path><path d="M 253.379,384.018 C 259.036,383.518 258.998,383.336 264.703,383.351" stroke-width="3.471" stroke="black" fill="none" stroke-linecap="round"></path><path d="M 264.703,383.351 C 270.384,383.019 270.360,383.185 276.027,383.351" stroke-width="3.458" stroke="black" fill="none" stroke-linecap="round"></path><path d="M 276.027,383.351 C 281.787,383.538 281.708,383.686 287.350,384.684" stroke-width="3.544" stroke="black" fill="none" stroke-linecap="round"></path><path d="M 287.350,384.684 C 293.148,385.989 293.110,385.870 298.674,388.016" stroke-width="3.492" stroke="black" fill="none" stroke-linecap="round"></path><path d="M 298.674,388.016 C 303.199,389.676 303.140,389.654 307.334,392.014" stroke-width="3.514" stroke="black" fill="none" stroke-linecap="round"></path><path d="M 307.334,392.014 C 310.869,394.103 310.859,394.007 313.995,396.678" stroke-width="3.662" stroke="black" fill="none" stroke-linecap="round"></path><path d="M 313.995,396.678 C 316.639,398.772 316.531,398.767 318.658,401.342" stroke-width="4.042" stroke="black" fill="none" stroke-linecap="round"></path><path d="M 318.658,401.342 C 320.741,403.448 320.302,403.436 321.322,406.007" stroke-width="4.309" stroke="black" fill="none" stroke-linecap="round"></path><path d="M 321.322,406.007 C 322.570,411.149 322.406,410.778 321.988,416.002" stroke-width="4.313" stroke="black" fill="none" stroke-linecap="round"></path><path d="M 321.988,416.002 C 321.150,419.621 321.571,419.478 319.324,422.665" stroke-width="4.056" stroke="black" fill="none" stroke-linecap="round"></path><path d="M 319.324,422.665 C 316.844,426.162 317.153,426.284 313.995,429.328" stroke-width="3.933" stroke="black" fill="none" stroke-linecap="round"></path><path d="M 313.995,429.328 C 310.822,432.834 310.849,432.825 307.334,435.992" stroke-width="3.898" stroke="black" fill="none" stroke-linecap="round"></path><path d="M 307.334,435.992 C 303.927,439.374 303.828,439.165 300.007,441.989" stroke-width="3.424" stroke="black" fill="none" stroke-linecap="round"></path><path d="M 300.007,441.989 C 295.803,444.596 295.934,444.705 291.347,446.653" stroke-width="3.520" stroke="black" fill="none" stroke-linecap="round"></path><path d="M 291.347,446.653 C 287.122,448.670 287.144,448.594 282.688,449.985" stroke-width="3.652" stroke="black" fill="none" stroke-linecap="round"></path><path d="M 282.688,449.985 C 278.054,451.146 278.130,451.336 273.362,451.984" stroke-width="3.669" stroke="black" fill="none" stroke-linecap="round"></path><path d="M 273.362,451.984 C 268.714,452.777 268.728,452.812 264.037,453.316" stroke-width="3.634" stroke="black" fill="none" stroke-linecap="round"></path><path d="M 264.037,453.316 C 260.039,453.635 260.054,453.776 256.043,453.983" stroke-width="3.853" stroke="black" fill="none" stroke-linecap="round"></path><path d="M 256.043,453.983 C 252.386,454.466 252.378,454.302 248.716,454.649" stroke-width="3.950" stroke="black" fill="none" stroke-linecap="round"></path><path d="M 280.023,359.363 C 284.701,359.549 284.686,359.697 289.349,360.030" stroke-width="5.387" stroke="black" fill="none" stroke-linecap="round"></path><path d="M 289.349,360.030 C 294.340,360.737 294.360,360.548 299.341,361.362" stroke-width="3.707" stroke="black" fill="none" stroke-linecap="round"></path><path d="M 299.341,361.362 C 304.986,362.222 304.997,362.070 310.664,362.695" stroke-width="4.047" stroke="black" fill="none" stroke-linecap="round"></path><path d="M 310.664,362.695 C 316.992,363.028 316.976,363.221 323.321,363.361" stroke-width="3.494" stroke="black" fill="none" stroke-linecap="round"></path><path d="M 323.321,363.361 C 329.644,363.861 329.649,363.695 335.977,364.028" stroke-width="3.458" stroke="black" fill="none" stroke-linecap="round"></path><path d="M 335.977,364.028 C 342.309,364.199 342.300,364.194 348.633,364.028" stroke-width="3.375" stroke="black" fill="none" stroke-linecap="round"></path><path d="M 348.633,364.028 C 354.645,363.889 354.633,363.865 360.623,363.361" stroke-width="3.375" stroke="black" fill="none" stroke-linecap="round"></path><path d="M 360.623,363.361 C 365.988,362.911 365.969,362.889 371.281,362.029" stroke-width="3.375" stroke="black" fill="none" stroke-linecap="round"></path><path d="M 371.281,362.029 C 376.044,361.361 375.980,361.245 380.606,360.030" stroke-width="3.568" stroke="black" fill="none" stroke-linecap="round"></path><path d="M 380.606,360.030 C 383.992,358.820 384.038,359.028 387.267,357.364" stroke-width="3.783" stroke="black" fill="none" stroke-linecap="round"></path><path d="M 387.267,357.364 C 390.405,356.617 389.987,356.155 392.596,354.699" stroke-width="4.083" stroke="black" fill="none" stroke-linecap="round"></path><path d="M 392.596,354.699 C 397.166,351.831 395.734,351.953 397.925,348.036" stroke-width="4.346" stroke="black" fill="none" stroke-linecap="round"></path><path d="M 397.925,348.036 C 397.739,342.675 398.832,343.502 395.927,338.041" stroke-width="4.333" stroke="black" fill="none" stroke-linecap="round"></path><path d="M 395.927,338.041 C 394.190,335.133 394.742,335.012 391.930,332.710" stroke-width="4.125" stroke="black" fill="none" stroke-linecap="round"></path><path d="M 391.930,332.710 C 389.477,330.077 389.528,330.135 386.601,328.046" stroke-width="4.063" stroke="black" fill="none" stroke-linecap="round"></path><path d="M 386.601,328.046 C 383.748,326.037 383.816,326.079 380.606,324.714" stroke-width="4.070" stroke="black" fill="none" stroke-linecap="round"></path><path d="M 380.606,324.714 C 377.339,323.394 377.420,323.372 373.945,322.715" stroke-width="4.103" stroke="black" fill="none" stroke-linecap="round"></path><path d="M 373.945,322.715 C 370.589,321.739 370.678,322.061 367.284,322.049" stroke-width="4.056" stroke="black" fill="none" stroke-linecap="round"></path><path d="M 367.284,322.049 C 359.797,322.864 359.931,322.738 352.629,324.714" stroke-width="3.873" stroke="black" fill="none" stroke-linecap="round"></path><path d="M 352.629,324.714 C 349.387,325.659 349.472,325.529 346.634,327.379" stroke-width="4.044" stroke="black" fill="none" stroke-linecap="round"></path><path d="M 346.634,327.379 C 343.807,328.977 344.058,328.990 341.972,331.377" stroke-width="4.148" stroke="black" fill="none" stroke-linecap="round"></path><path d="M 341.972,331.377 C 338.942,334.839 339.477,334.640 337.975,338.707" stroke-width="4.432" stroke="black" fill="none" stroke-linecap="round"></path><path d="M 337.975,338.707 C 337.821,341.831 337.276,341.503 338.641,344.704" stroke-width="4.276" stroke="black" fill="none" stroke-linecap="round"></path><path d="M 338.641,344.704 C 340.228,348.736 339.819,348.828 341.972,352.700" stroke-width="3.876" stroke="black" fill="none" stroke-linecap="round"></path><path d="M 341.972,352.700 C 343.594,357.246 343.892,357.066 345.968,361.362" stroke-width="3.734" stroke="black" fill="none" stroke-linecap="round"></path><path d="M 345.968,361.362 C 349.043,365.642 348.590,365.908 351.963,370.025" stroke-width="3.602" stroke="black" fill="none" stroke-linecap="round"></path><path d="M 351.963,370.025 C 354.884,374.740 355.038,374.638 357.958,379.353" stroke-width="3.461" stroke="black" fill="none" stroke-linecap="round"></path><path d="M 357.958,379.353 C 360.992,383.660 360.879,383.736 363.953,388.016" stroke-width="3.522" stroke="black" fill="none" stroke-linecap="round"></path><path d="M 363.953,388.016 C 366.658,391.987 366.654,391.989 369.282,396.012" stroke-width="3.622" stroke="black" fill="none" stroke-linecap="round"></path><path d="M 369.282,396.012 C 371.793,399.575 371.654,399.650 373.945,403.341" stroke-width="3.692" stroke="black" fill="none" stroke-linecap="round"></path><path d="M 373.945,403.341 C 375.610,406.673 375.790,406.571 377.276,410.005" stroke-width="3.888" stroke="black" fill="none" stroke-linecap="round"></path><path d="M 377.276,410.005 C 378.900,412.562 378.608,412.670 379.940,415.335" stroke-width="4.119" stroke="black" fill="none" stroke-linecap="round"></path><path d="M 379.940,415.335 C 380.767,417.971 380.899,417.893 381.272,420.666" stroke-width="4.210" stroke="black" fill="none" stroke-linecap="round"></path><path d="M 381.272,420.666 C 381.822,423.318 381.766,423.301 381.938,425.997" stroke-width="4.295" stroke="black" fill="none" stroke-linecap="round"></path><path d="M 381.938,425.997 C 382.368,431.047 382.155,430.981 381.938,435.992" stroke-width="4.370" stroke="black" fill="none" stroke-linecap="round"></path><path d="M 381.938,435.992 C 381.565,438.765 381.702,438.710 380.606,441.322" stroke-width="4.327" stroke="black" fill="none" stroke-linecap="round"></path><path d="M 380.606,441.322 C 379.681,444.281 379.566,444.096 377.942,446.653" stroke-width="4.256" stroke="black" fill="none" stroke-linecap="round"></path><path d="M 377.942,446.653 C 375.814,449.229 376.017,449.278 373.279,451.317" stroke-width="4.112" stroke="black" fill="none" stroke-linecap="round"></path><path d="M 373.279,451.317 C 370.143,453.988 370.153,453.893 366.618,455.982" stroke-width="3.989" stroke="black" fill="none" stroke-linecap="round"></path><path d="M 366.618,455.982 C 362.424,458.342 362.483,458.320 357.958,459.980" stroke-width="3.711" stroke="black" fill="none" stroke-linecap="round"></path><path d="M 357.958,459.980 C 352.389,462.067 352.432,462.007 346.634,463.311" stroke-width="3.486" stroke="black" fill="none" stroke-linecap="round"></path><path d="M 346.634,463.311 C 339.983,464.379 340.066,464.732 333.312,465.310" stroke-width="3.375" stroke="black" fill="none" stroke-linecap="round"></path><path d="M 333.312,465.310 C 325.683,466.681 325.662,466.378 317.992,467.309" stroke-width="3.375" stroke="black" fill="none" stroke-linecap="round"></path><path d="M 317.992,467.309 C 309.332,467.643 309.363,468.014 300.673,467.976" stroke-width="3.375" stroke="black" fill="none" stroke-linecap="round"></path><path d="M 300.673,467.976 C 292.016,468.472 292.013,468.309 283.354,468.642" stroke-width="3.375" stroke="black" fill="none" stroke-linecap="round"></path><path d="M 283.354,468.642 C 275.024,468.816 275.031,468.805 266.701,468.642" stroke-width="3.375" stroke="black" fill="none" stroke-linecap="round"></path><path d="M 266.701,468.642 C 259.039,468.341 259.037,468.482 251.380,467.976" stroke-width="3.375" stroke="black" fill="none" stroke-linecap="round"></path><path d="M 251.380,467.976 C 245.050,467.682 245.051,467.674 238.724,467.309" stroke-width="3.375" stroke="black" fill="none" stroke-linecap="round"></path><path d="M 238.724,467.309 C 233.694,467.239 233.726,467.015 228.733,466.643" stroke-width="3.431" stroke="black" fill="none" stroke-linecap="round"></path><path d="M 392.596,370.691 C 398.591,371.033 398.591,371.024 404.586,371.357" stroke-width="5.273" stroke="black" fill="none" stroke-linecap="round"></path><path d="M 404.586,371.357 C 410.914,371.691 410.914,371.699 417.242,372.024" stroke-width="4.242" stroke="black" fill="none" stroke-linecap="round"></path><path d="M 417.242,372.024 C 423.585,372.178 423.570,372.357 429.898,372.690" stroke-width="3.649" stroke="black" fill="none" stroke-linecap="round"></path><path d="M 429.898,372.690 C 435.883,373.477 435.908,373.177 441.888,374.023" stroke-width="3.390" stroke="black" fill="none" stroke-linecap="round"></path><path d="M 441.888,374.023 C 446.892,374.261 446.874,374.476 451.880,374.689" stroke-width="3.494" stroke="black" fill="none" stroke-linecap="round"></path><path d="M 425.236,379.353 C 428.980,381.914 428.899,382.019 432.563,384.684" stroke-width="5.318" stroke="black" fill="none" stroke-linecap="round"></path><path d="M 432.563,384.684 C 436.226,387.683 436.307,387.578 439.890,390.681" stroke-width="4.117" stroke="black" fill="none" stroke-linecap="round"></path><path d="M 439.890,390.681 C 443.538,393.699 443.554,393.680 447.217,396.678" stroke-width="3.806" stroke="black" fill="none" stroke-linecap="round"></path><path d="M 447.217,396.678 C 450.695,399.179 450.532,399.363 453.878,402.009" stroke-width="3.813" stroke="black" fill="none" stroke-linecap="round"></path><path d="M 453.878,402.009 C 456.632,404.591 456.690,404.509 459.207,407.339" stroke-width="4.000" stroke="black" fill="none" stroke-linecap="round"></path><path d="M 459.207,407.339 C 461.661,409.908 461.627,409.922 463.870,412.670" stroke-width="3.979" stroke="black" fill="none" stroke-linecap="round"></path><path d="M 463.870,412.670 C 465.752,414.872 465.658,414.905 467.201,417.334" stroke-width="4.091" stroke="black" fill="none" stroke-linecap="round"></path><path d="M 467.201,417.334 C 470.531,420.635 469.083,420.535 470.531,423.998" stroke-width="4.501" stroke="black" fill="none" stroke-linecap="round"></path><path d="M 470.531,423.998 C 469.686,428.344 470.531,427.632 467.201,431.327" stroke-width="4.534" stroke="black" fill="none" stroke-linecap="round"></path><path d="M 467.201,431.327 C 464.102,434.073 464.690,434.341 460.539,435.992" stroke-width="4.051" stroke="black" fill="none" stroke-linecap="round"></path><path d="M 460.539,435.992 C 455.316,438.599 455.443,438.737 449.882,440.656" stroke-width="3.585" stroke="black" fill="none" stroke-linecap="round"></path><path d="M 449.882,440.656 C 442.967,443.257 442.993,443.263 435.893,445.320" stroke-width="3.375" stroke="black" fill="none" stroke-linecap="round"></path><path d="M 435.893,445.320 C 426.981,448.018 426.980,447.921 417.908,449.985" stroke-width="3.375" stroke="black" fill="none" stroke-linecap="round"></path><path d="M 417.908,449.985 C 406.970,452.334 406.998,452.349 395.927,453.983" stroke-width="3.375" stroke="black" fill="none" stroke-linecap="round"></path><path d="M 395.927,453.983 C 384.620,455.480 384.655,455.666 373.279,456.648" stroke-width="3.375" stroke="black" fill="none" stroke-linecap="round"></path><path d="M 373.279,456.648 C 361.973,457.949 361.972,457.812 350.631,458.647" stroke-width="3.375" stroke="black" fill="none" stroke-linecap="round"></path><path d="M 350.631,458.647 C 340.306,458.963 340.324,459.282 329.982,459.313" stroke-width="3.375" stroke="black" fill="none" stroke-linecap="round"></path><path d="M 329.982,459.313 C 320.659,459.797 320.655,459.630 311.331,459.980" stroke-width="3.375" stroke="black" fill="none" stroke-linecap="round"></path><path d="M 311.331,459.980 C 303.665,460.167 303.673,460.130 296.010,459.980" stroke-width="3.375" stroke="black" fill="none" stroke-linecap="round"></path><path d="M 296.010,459.980 C 290.010,459.713 290.010,459.833 284.020,459.313" stroke-width="3.375" stroke="black" fill="none" stroke-linecap="round"></path><path d="M 284.020,459.313 C 279.980,459.240 280.019,459.047 276.027,458.647" stroke-width="3.660" stroke="black" fill="none" stroke-linecap="round"></path><path d="M 485.852,372.690 C 479.435,367.932 479.191,368.359 472.530,364.028" stroke-width="4.987" stroke="black" fill="none" stroke-linecap="round"></path><path d="M 472.530,364.028 C 464.156,359.006 464.114,359.270 455.211,355.365" stroke-width="3.375" stroke="black" fill="none" stroke-linecap="round"></path><path d="M 455.211,355.365 C 444.365,351.197 444.506,351.009 433.229,348.036" stroke-width="3.375" stroke="black" fill="none" stroke-linecap="round"></path><path d="M 433.229,348.036 C 419.696,344.098 419.719,344.200 405.918,341.372" stroke-width="3.375" stroke="black" fill="none" stroke-linecap="round"></path><path d="M 405.918,341.372 C 389.353,337.955 389.388,338.101 372.613,336.042" stroke-width="3.375" stroke="black" fill="none" stroke-linecap="round"></path><path d="M 372.613,336.042 C 354.319,333.851 354.382,333.957 335.977,333.376" stroke-width="3.375" stroke="black" fill="none" stroke-linecap="round"></path><path d="M 335.977,333.376 C 315.626,333.028 315.684,332.851 295.344,334.043" stroke-width="3.375" stroke="black" fill="none" stroke-linecap="round"></path><path d="M 295.344,334.043 C 275.644,335.255 275.659,335.027 256.043,337.374" stroke-width="3.375" stroke="black" fill="none" stroke-linecap="round"></path><path d="M 256.043,337.374 C 238.627,339.137 238.675,339.253 221.405,342.039" stroke-width="3.375" stroke="black" fill="none" stroke-linecap="round"></path><path d="M 221.405,342.039 C 206.982,344.622 206.986,344.468 192.763,348.036" stroke-width="3.375" stroke="black" fill="none" stroke-linecap="round"></path><path d="M 192.763,348.036 C 181.978,350.647 182.003,350.619 171.447,354.033" stroke-width="3.375" stroke="black" fill="none" stroke-linecap="round"></path><path d="M 171.447,354.033 C 163.261,356.604 163.327,356.644 155.460,360.030" stroke-width="3.375" stroke="black" fill="none" stroke-linecap="round"></path><path d="M 155.460,360.030 C 149.319,362.379 149.606,362.601 144.136,366.027" stroke-width="3.375" stroke="black" fill="none" stroke-linecap="round"></path><path d="M 144.136,366.027 C 139.785,368.780 140.326,368.709 137.475,372.690" stroke-width="3.441" stroke="black" fill="none" stroke-linecap="round"></path><path d="M 137.475,372.690 C 135.083,376.742 135.455,376.110 135.477,380.686" stroke-width="3.765" stroke="black" fill="none" stroke-linecap="round"></path><path d="M 135.477,380.686 C 136.221,387.393 136.082,386.737 139.474,392.680" stroke-width="3.485" stroke="black" fill="none" stroke-linecap="round"></path><path d="M 139.474,392.680 C 144.573,400.679 144.215,400.386 151.464,406.673" stroke-width="3.375" stroke="black" fill="none" stroke-linecap="round"></path><path d="M 151.464,406.673 C 160.212,414.071 159.893,414.006 170.115,419.333" stroke-width="3.375" stroke="black" fill="none" stroke-linecap="round"></path><path d="M 170.115,419.333 C 181.804,425.230 181.528,425.398 194.095,429.328" stroke-width="3.375" stroke="black" fill="none" stroke-linecap="round"></path><path d="M 194.095,429.328 C 206.962,433.239 206.783,433.559 220.073,435.992" stroke-width="3.375" stroke="black" fill="none" stroke-linecap="round"></path><path d="M 220.073,435.992 C 234.007,438.718 233.939,438.903 248.050,440.656" stroke-width="3.375" stroke="black" fill="none" stroke-linecap="round"></path><path d="M 248.050,440.656 C 263.006,442.681 262.983,442.716 278.025,443.988" stroke-width="3.375" stroke="black" fill="none" stroke-linecap="round"></path><path d="M 278.025,443.988 C 293.663,445.673 293.647,445.347 309.332,445.987" stroke-width="3.375" stroke="black" fill="none" stroke-linecap="round"></path><path d="M 309.332,445.987 C 326.996,445.974 326.969,446.340 344.636,445.320" stroke-width="3.375" stroke="black" fill="none" stroke-linecap="round"></path><path d="M 344.636,445.320 C 363.002,444.873 362.966,444.641 381.272,443.321" stroke-width="3.375" stroke="black" fill="none" stroke-linecap="round"></path><path d="M 381.272,443.321 C 398.280,441.490 398.306,441.875 415.244,439.323" stroke-width="3.375" stroke="black" fill="none" stroke-linecap="round"></path><path d="M 415.244,439.323 C 429.629,437.702 429.587,437.492 443.887,435.325" stroke-width="3.375" stroke="black" fill="none" stroke-linecap="round"></path><path d="M 443.887,435.325 C 455.558,433.064 455.608,433.371 467.201,430.661" stroke-width="3.375" stroke="black" fill="none" stroke-linecap="round"></path><path d="M 467.201,430.661 C 476.618,429.017 476.541,428.733 485.852,426.663" stroke-width="3.375" stroke="black" fill="none" stroke-linecap="round"></path><path d="M 485.852,426.663 C 493.540,424.419 493.604,424.686 501.172,421.999" stroke-width="3.375" stroke="black" fill="none" stroke-linecap="round"></path></svg>