<svg xmlns="http://www.w3.org/2000/svg" xmlns:xlink="http://www.w3.org/1999/xlink" viewBox="311.670000 158.909000 250.236000 354.005000"><path d="M 400.088,262.261 C 394.594,262.261 394.594,262.261 389.101,262.261" stroke-width="4.976" stroke="black" fill="none" stroke-linecap="round"></path><path d="M 389.101,262.261 C 384.955,261.387 385.106,262.261 381.111,262.261" stroke-width="4.265" stroke="black" fill="none" stroke-linecap="round"></path><path d="M 381.111,262.261 C 373.579,263.718 373.969,263.885 367.129,267.257" stroke-width="3.375" stroke="black" fill="none" stroke-linecap="round"></path><path d="M 367.129,267.257 C 358.027,272.526 358.099,272.212 350.150,279.248" stroke-width="3.375" stroke="black" fill="none" stroke-linecap="round"></path><path d="M 350.150,279.248 C 340.521,286.852 341.048,287.015 333.171,296.235" stroke-width="3.375" stroke="black" fill="none" stroke-linecap="round"></path><path d="M 333.171,296.235 C 325.546,305.587 326.040,305.338 321.186,316.219" stroke-width="3.375" stroke="black" fill="none" stroke-linecap="round"></path><path d="M 321.186,316.219 C 316.646,325.932 317.556,325.071 317.191,335.204" stroke-width="3.375" stroke="black" fill="none" stroke-linecap="round"></path><path d="M 317.191,335.204 C 318.148,344.435 317.645,342.919 323.184,350.193" stroke-width="3.375" stroke="black" fill="none" stroke-linecap="round"></path><path d="M 323.184,350.193 C 329.944,356.979 328.635,356.425 338.165,359.185" stroke-width="3.375" stroke="black" fill="none" stroke-linecap="round"></path><path d="M 338.165,359.185 C 351.156,361.400 350.418,362.475 364.132,361.184" stroke-width="3.375" stroke="black" fill="none" stroke-linecap="round"></path><path d="M 364.132,361.184 C 381.109,359.664 381.118,360.901 398.090,358.186" stroke-width="3.375" stroke="black" fill="none" stroke-linecap="round"></path><path d="M 398.090,358.186 C 415.538,355.985 415.566,356.666 433.046,355.189" stroke-width="3.375" stroke="black" fill="none" stroke-linecap="round"></path><path d="M 433.046,355.189 C 448.725,353.660 448.497,354.486 464.008,355.189" stroke-width="3.375" stroke="black" fill="none" stroke-linecap="round"></path><path d="M 464.008,355.189 C 477.756,354.403 473.694,356.158 482.984,360.185" stroke-width="3.375" stroke="black" fill="none" stroke-linecap="round"></path><path d="M 482.984,360.185 C 485.770,368.958 487.244,364.895 482.984,376.172" stroke-width="3.375" stroke="black" fill="none" stroke-linecap="round"></path><path d="M 482.984,376.172 C 476.068,391.356 477.281,390.941 466.005,404.150" stroke-width="3.375" stroke="black" fill="none" stroke-linecap="round"></path><path d="M 466.005,404.150 C 451.480,421.648 452.098,421.833 435.044,437.125" stroke-width="3.375" stroke="black" fill="none" stroke-linecap="round"></path><path d="M 435.044,437.125 C 417.224,453.477 417.522,453.623 398.090,468.100" stroke-width="3.375" stroke="black" fill="none" stroke-linecap="round"></path><path d="M 398.090,468.100 C 381.065,480.831 381.269,480.956 363.134,492.082" stroke-width="3.375" stroke="black" fill="none" stroke-linecap="round"></path><path d="M 363.134,492.082 C 351.557,500.187 351.602,499.317 339.164,505.072" stroke-width="3.375" stroke="black" fill="none" stroke-linecap="round"></path><path d="M 339.164,505.072 C 330.032,507.938 335.078,506.682 330.175,505.072" stroke-width="3.375" stroke="black" fill="none" stroke-linecap="round"></path><path d="M 330.175,505.072 C 333.884,494.267 330.531,497.946 340.162,485.087" stroke-width="3.375" stroke="black" fill="none" stroke-linecap="round"></path><path d="M 340.162,485.087 C 354.038,466.097 353.360,465.789 369.126,448.116" stroke-width="3.375" stroke="black" fill="none" stroke-linecap="round"></path><path d="M 369.126,448.116 C 388.316,425.874 387.996,425.628 408.078,404.150" stroke-width="3.375" stroke="black" fill="none" stroke-linecap="round"></path><path d="M 408.078,404.150 C 428.682,381.311 428.766,381.408 450.025,359.185" stroke-width="3.375" stroke="black" fill="none" stroke-linecap="round"></path><path d="M 450.025,359.185 C 470.500,338.701 470.130,338.344 490.974,318.217" stroke-width="3.375" stroke="black" fill="none" stroke-linecap="round"></path><path d="M 490.974,318.217 C 507.604,301.877 507.453,301.730 523.933,285.243" stroke-width="3.375" stroke="black" fill="none" stroke-linecap="round"></path><path d="M 523.933,285.243 C 535.704,274.381 535.069,273.899 545.905,262.261" stroke-width="3.375" stroke="black" fill="none" stroke-linecap="round"></path><path d="M 545.905,262.261 C 552.935,255.040 551.684,255.396 555.893,247.273" stroke-width="3.375" stroke="black" fill="none" stroke-linecap="round"></path><path d="M 555.893,247.273 C 556.450,241.399 556.930,244.548 553.895,241.278" stroke-width="3.375" stroke="black" fill="none" stroke-linecap="round"></path><path d="M 553.895,241.278 C 544.033,242.728 545.963,240.900 534.919,246.274" stroke-width="3.375" stroke="black" fill="none" stroke-linecap="round"></path><path d="M 534.919,246.274 C 517.096,253.579 517.066,253.220 499.963,262.261" stroke-width="3.375" stroke="black" fill="none" stroke-linecap="round"></path><path d="M 499.963,262.261 C 478.691,273.240 478.644,273.064 458.015,285.243" stroke-width="3.375" stroke="black" fill="none" stroke-linecap="round"></path><path d="M 458.015,285.243 C 438.121,296.608 438.242,296.722 419.064,309.225" stroke-width="3.375" stroke="black" fill="none" stroke-linecap="round"></path><path d="M 419.064,309.225 C 404.323,319.381 404.163,319.090 390.100,330.208" stroke-width="3.375" stroke="black" fill="none" stroke-linecap="round"></path><path d="M 390.100,330.208 C 381.465,337.042 381.352,336.868 373.121,344.197" stroke-width="3.375" stroke="black" fill="none" stroke-linecap="round"></path><path d="M 373.121,344.197 C 367.518,349.692 370.978,346.035 369.126,348.194" stroke-width="3.375" stroke="black" fill="none" stroke-linecap="round"></path><path d="M 369.126,348.194 C 386.270,333.370 382.000,336.203 402.085,317.218" stroke-width="3.375" stroke="black" fill="none" stroke-linecap="round"></path><path d="M 402.085,317.218 C 434.678,284.705 434.210,284.409 465.006,250.271" stroke-width="3.375" stroke="black" fill="none" stroke-linecap="round"></path><path d="M 465.006,250.271 C 478.288,233.502 479.122,234.244 490.974,216.297" stroke-width="3.375" stroke="black" fill="none" stroke-linecap="round"></path><path d="M 490.974,216.297 C 500.664,202.944 500.760,203.026 509.950,189.318" stroke-width="3.375" stroke="black" fill="none" stroke-linecap="round"></path><path d="M 509.950,189.318 C 515.486,180.852 515.645,180.961 520.936,172.331" stroke-width="3.375" stroke="black" fill="none" stroke-linecap="round"></path><path d="M 520.936,172.331 C 525.930,164.884 523.476,168.362 525.930,164.338" stroke-width="3.375" stroke="black" fill="none" stroke-linecap="round"></path><path d="M 525.930,164.338 C 523.443,167.343 525.930,163.885 520.936,170.333" stroke-width="3.572" stroke="black" fill="none" stroke-linecap="round"></path><path d="M 520.936,170.333 C 510.050,182.505 510.459,182.831 499.963,195.314" stroke-width="3.375" stroke="black" fill="none" stroke-linecap="round"></path><path d="M 499.963,195.314 C 483.743,215.275 484.082,215.479 469.001,236.281" stroke-width="3.375" stroke="black" fill="none" stroke-linecap="round"></path><path d="M 469.001,236.281 C 451.364,262.657 450.785,262.239 434.045,289.240" stroke-width="3.375" stroke="black" fill="none" stroke-linecap="round"></path><path d="M 434.045,289.240 C 414.341,318.273 414.909,318.613 396.093,348.194" stroke-width="3.375" stroke="black" fill="none" stroke-linecap="round"></path><path d="M 396.093,348.194 C 377.637,376.919 378.386,377.227 362.135,407.148" stroke-width="3.375" stroke="black" fill="none" stroke-linecap="round"></path></svg>