<svg xmlns="http://www.w3.org/2000/svg" xmlns:xlink="http://www.w3.org/1999/xlink" viewBox="58.655000 254.216000 695.429000 388.980000"><path d="M 128.427,401.153 C 131.645,400.006 131.423,399.654 134.420,398.155" stroke-width="5.432" stroke="black" fill="none" stroke-linecap="round"></path><path d="M 134.420,398.155 C 139.056,394.827 139.136,395.009 143.408,391.161" stroke-width="3.728" stroke="black" fill="none" stroke-linecap="round"></path><path d="M 143.408,391.161 C 148.774,387.022 148.544,386.834 153.396,382.168" stroke-width="3.375" stroke="black" fill="none" stroke-linecap="round"></path><path d="M 153.396,382.168 C 158.483,376.247 158.762,376.530 163.383,370.177" stroke-width="3.375" stroke="black" fill="none" stroke-linecap="round"></path><path d="M 163.383,370.177 C 169.229,363.434 168.970,363.258 174.370,356.188" stroke-width="3.375" stroke="black" fill="none" stroke-linecap="round"></path><path d="M 174.370,356.188 C 179.691,347.579 180.216,347.946 185.356,339.201" stroke-width="3.375" stroke="black" fill="none" stroke-linecap="round"></path><path d="M 185.356,339.201 C 191.701,330.935 191.177,330.592 197.341,322.214" stroke-width="3.375" stroke="black" fill="none" stroke-linecap="round"></path><path d="M 197.341,322.214 C 202.501,313.814 202.687,313.948 207.328,305.228" stroke-width="3.375" stroke="black" fill="none" stroke-linecap="round"></path><path d="M 207.328,305.228 C 211.524,297.833 211.490,297.827 215.318,290.239" stroke-width="3.375" stroke="black" fill="none" stroke-linecap="round"></path><path d="M 215.318,290.239 C 218.712,283.895 218.515,283.844 221.311,277.250" stroke-width="3.375" stroke="black" fill="none" stroke-linecap="round"></path><path d="M 221.311,277.250 C 223.356,272.334 223.206,272.404 224.307,267.257" stroke-width="3.375" stroke="black" fill="none" stroke-linecap="round"></path><path d="M 224.307,267.257 C 225.921,262.646 224.854,264.340 224.307,261.262" stroke-width="3.843" stroke="black" fill="none" stroke-linecap="round"></path><path d="M 224.307,261.262 C 220.355,259.932 222.425,259.648 217.316,261.262" stroke-width="4.369" stroke="black" fill="none" stroke-linecap="round"></path><path d="M 217.316,261.262 C 212.209,264.157 212.365,263.429 208.327,268.257" stroke-width="3.550" stroke="black" fill="none" stroke-linecap="round"></path><path d="M 208.327,268.257 C 203.648,274.121 203.220,273.650 199.338,280.247" stroke-width="3.375" stroke="black" fill="none" stroke-linecap="round"></path><path d="M 199.338,280.247 C 193.863,287.462 194.159,287.610 189.351,295.235" stroke-width="3.375" stroke="black" fill="none" stroke-linecap="round"></path><path d="M 189.351,295.235 C 184.843,303.012 184.874,302.950 181.361,311.223" stroke-width="3.375" stroke="black" fill="none" stroke-linecap="round"></path><path d="M 181.361,311.223 C 178.052,319.620 177.852,319.499 175.368,328.210" stroke-width="3.375" stroke="black" fill="none" stroke-linecap="round"></path><path d="M 175.368,328.210 C 172.891,335.608 173.058,335.607 171.373,343.198" stroke-width="3.375" stroke="black" fill="none" stroke-linecap="round"></path><path d="M 171.373,343.198 C 169.861,350.658 169.894,350.597 169.376,358.186" stroke-width="3.375" stroke="black" fill="none" stroke-linecap="round"></path><path d="M 169.376,358.186 C 169.873,366.211 168.863,366.146 169.376,374.174" stroke-width="3.375" stroke="black" fill="none" stroke-linecap="round"></path><path d="M 169.376,374.174 C 168.377,382.168 168.875,382.198 167.378,390.161" stroke-width="3.375" stroke="black" fill="none" stroke-linecap="round"></path><path d="M 167.378,390.161 C 166.445,398.164 166.380,398.155 165.381,406.149" stroke-width="3.375" stroke="black" fill="none" stroke-linecap="round"></path><path d="M 165.381,406.149 C 164.457,413.155 164.448,413.152 163.383,420.138" stroke-width="3.375" stroke="black" fill="none" stroke-linecap="round"></path><path d="M 163.383,420.138 C 161.934,426.096 162.460,426.145 161.386,432.128" stroke-width="3.375" stroke="black" fill="none" stroke-linecap="round"></path><path d="M 161.386,432.128 C 161.386,437.125 160.935,437.087 161.386,442.121" stroke-width="3.375" stroke="black" fill="none" stroke-linecap="round"></path><path d="M 161.386,442.121 C 159.748,450.934 161.386,446.118 161.386,450.114" stroke-width="3.677" stroke="black" fill="none" stroke-linecap="round"></path><path d="M 161.386,450.114 C 166.979,443.995 164.742,448.435 171.373,437.125" stroke-width="4.432" stroke="black" fill="none" stroke-linecap="round"></path><path d="M 171.373,437.125 C 174.370,431.129 174.969,431.504 177.366,425.134" stroke-width="3.445" stroke="black" fill="none" stroke-linecap="round"></path><path d="M 177.366,425.134 C 180.479,419.194 180.362,419.139 183.358,413.143" stroke-width="3.375" stroke="black" fill="none" stroke-linecap="round"></path><path d="M 183.358,413.143 C 185.529,408.714 185.472,408.702 187.353,404.150" stroke-width="3.482" stroke="black" fill="none" stroke-linecap="round"></path><path d="M 187.353,404.150 C 186.899,399.136 188.525,401.220 189.351,398.155" stroke-width="3.850" stroke="black" fill="none" stroke-linecap="round"></path><path d="M 73.496,330.208 C 76.492,330.208 76.492,330.208 79.488,330.208" stroke-width="5.360" stroke="black" fill="none" stroke-linecap="round"></path><path d="M 79.488,330.208 C 86.519,330.788 86.480,330.208 93.471,330.208" stroke-width="3.537" stroke="black" fill="none" stroke-linecap="round"></path><path d="M 93.471,330.208 C 104.491,328.929 104.496,329.289 115.443,327.210" stroke-width="3.375" stroke="black" fill="none" stroke-linecap="round"></path><path d="M 115.443,327.210 C 129.957,324.883 129.959,324.932 144.407,322.214" stroke-width="3.375" stroke="black" fill="none" stroke-linecap="round"></path><path d="M 144.407,322.214 C 162.404,318.813 162.416,318.888 180.362,315.220" stroke-width="3.375" stroke="black" fill="none" stroke-linecap="round"></path><path d="M 180.362,315.220 C 199.838,311.223 199.857,311.319 219.313,307.226" stroke-width="3.375" stroke="black" fill="none" stroke-linecap="round"></path><path d="M 219.313,307.226 C 238.730,302.920 238.789,303.229 258.265,299.232" stroke-width="3.375" stroke="black" fill="none" stroke-linecap="round"></path><path d="M 258.265,299.232 C 291.603,292.299 291.664,292.928 325.181,287.242" stroke-width="3.375" stroke="black" fill="none" stroke-linecap="round"></path><path d="M 233.296,441.121 C 234.892,438.738 234.295,438.623 235.294,436.125" stroke-width="5.517" stroke="black" fill="none" stroke-linecap="round"></path><path d="M 235.294,436.125 C 237.691,429.731 235.890,432.243 235.294,428.132" stroke-width="5.157" stroke="black" fill="none" stroke-linecap="round"></path><path d="M 235.294,428.132 C 229.214,427.510 231.699,425.734 223.308,428.132" stroke-width="4.390" stroke="black" fill="none" stroke-linecap="round"></path><path d="M 223.308,428.132 C 219.644,428.743 219.726,428.509 216.317,430.130" stroke-width="4.065" stroke="black" fill="none" stroke-linecap="round"></path><path d="M 216.317,430.130 C 212.042,430.971 213.652,431.241 211.323,433.128" stroke-width="4.151" stroke="black" fill="none" stroke-linecap="round"></path><path d="M 211.323,433.128 C 210.999,437.961 210.544,435.468 213.321,439.123" stroke-width="4.793" stroke="black" fill="none" stroke-linecap="round"></path><path d="M 213.321,439.123 C 218.414,439.735 216.991,440.959 223.308,439.123" stroke-width="4.473" stroke="black" fill="none" stroke-linecap="round"></path><path d="M 223.308,439.123 C 226.443,438.424 226.404,438.736 229.301,437.125" stroke-width="4.155" stroke="black" fill="none" stroke-linecap="round"></path><path d="M 229.301,437.125 C 232.014,435.902 231.936,435.926 234.295,434.127" stroke-width="4.179" stroke="black" fill="none" stroke-linecap="round"></path><path d="M 234.295,434.127 C 236.292,432.129 236.508,432.405 238.290,430.130" stroke-width="4.164" stroke="black" fill="none" stroke-linecap="round"></path><path d="M 238.290,430.130 C 240.600,428.380 240.287,428.132 242.285,426.133" stroke-width="4.204" stroke="black" fill="none" stroke-linecap="round"></path><path d="M 242.285,426.133 C 244.386,421.822 245.095,422.385 247.279,418.139" stroke-width="4.561" stroke="black" fill="none" stroke-linecap="round"></path><path d="M 247.279,418.139 C 250.031,412.684 249.880,414.827 253.271,412.144" stroke-width="4.935" stroke="black" fill="none" stroke-linecap="round"></path><path d="M 253.271,412.144 C 257.843,413.299 256.024,411.685 259.264,416.141" stroke-width="5.094" stroke="black" fill="none" stroke-linecap="round"></path><path d="M 259.264,416.141 C 259.264,420.138 260.840,419.295 259.264,424.135" stroke-width="4.684" stroke="black" fill="none" stroke-linecap="round"></path><path d="M 259.264,424.135 C 257.639,428.878 259.264,428.132 259.264,432.128" stroke-width="4.592" stroke="black" fill="none" stroke-linecap="round"></path><path d="M 259.264,432.128 C 262.244,436.519 261.135,435.873 266.255,438.124" stroke-width="4.828" stroke="black" fill="none" stroke-linecap="round"></path><path d="M 286.230,437.125 C 289.743,436.876 289.725,437.125 293.221,437.125" stroke-width="5.562" stroke="black" fill="none" stroke-linecap="round"></path><path d="M 293.221,437.125 C 296.736,437.510 296.734,437.376 300.212,438.124" stroke-width="5.403" stroke="black" fill="none" stroke-linecap="round"></path><path d="M 300.212,438.124 C 305.166,439.530 305.226,439.009 310.200,440.122" stroke-width="4.579" stroke="black" fill="none" stroke-linecap="round"></path><path d="M 310.200,440.122 C 313.818,440.797 313.655,440.529 317.191,440.122" stroke-width="4.147" stroke="black" fill="none" stroke-linecap="round"></path><path d="M 317.191,440.122 C 321.265,438.804 321.309,439.298 325.181,437.125" stroke-width="3.910" stroke="black" fill="none" stroke-linecap="round"></path><path d="M 325.181,437.125 C 328.235,435.731 328.256,435.806 331.174,434.127" stroke-width="3.996" stroke="black" fill="none" stroke-linecap="round"></path><path d="M 331.174,434.127 C 336.953,431.719 333.728,432.733 336.167,431.129" stroke-width="4.085" stroke="black" fill="none" stroke-linecap="round"></path><path d="M 336.167,431.129 C 331.421,430.220 334.955,430.220 327.179,431.129" stroke-width="4.786" stroke="black" fill="none" stroke-linecap="round"></path><path d="M 327.179,431.129 C 321.953,432.733 324.430,431.719 322.185,434.127" stroke-width="4.247" stroke="black" fill="none" stroke-linecap="round"></path><path d="M 322.185,434.127 C 325.272,437.540 322.452,435.731 328.177,437.125" stroke-width="4.966" stroke="black" fill="none" stroke-linecap="round"></path><path d="M 328.177,437.125 C 331.904,432.928 332.263,436.541 336.167,432.128" stroke-width="4.559" stroke="black" fill="none" stroke-linecap="round"></path><path d="M 336.167,432.128 C 340.162,433.128 339.894,431.429 344.157,434.127" stroke-width="5.118" stroke="black" fill="none" stroke-linecap="round"></path><path d="M 344.157,434.127 C 348.085,435.674 348.152,435.126 352.147,436.125" stroke-width="5.334" stroke="black" fill="none" stroke-linecap="round"></path><path d="M 352.147,436.125 C 357.222,435.547 357.074,436.673 362.135,436.125" stroke-width="5.268" stroke="black" fill="none" stroke-linecap="round"></path><path d="M 362.135,436.125 C 365.562,437.614 365.712,436.546 369.126,438.124" stroke-width="4.137" stroke="black" fill="none" stroke-linecap="round"></path><path d="M 424.058,433.128 C 420.063,434.127 420.063,434.127 416.068,435.126" stroke-width="5.417" stroke="black" fill="none" stroke-linecap="round"></path><path d="M 416.068,435.126 C 410.390,438.281 412.073,436.125 408.078,437.125" stroke-width="4.992" stroke="black" fill="none" stroke-linecap="round"></path><path d="M 408.078,437.125 C 407.417,433.991 406.395,436.283 408.078,431.129" stroke-width="5.208" stroke="black" fill="none" stroke-linecap="round"></path><path d="M 408.078,431.129 C 409.662,427.667 408.915,427.497 411.074,424.135" stroke-width="4.145" stroke="black" fill="none" stroke-linecap="round"></path><path d="M 411.074,424.135 C 412.869,420.226 412.658,420.172 414.070,416.141" stroke-width="3.799" stroke="black" fill="none" stroke-linecap="round"></path><path d="M 414.070,416.141 C 415.013,411.631 415.366,411.733 416.068,407.148" stroke-width="3.636" stroke="black" fill="none" stroke-linecap="round"></path><path d="M 416.068,407.148 C 417.525,403.208 417.011,403.138 418.065,399.154" stroke-width="3.741" stroke="black" fill="none" stroke-linecap="round"></path><path d="M 418.065,399.154 C 418.065,395.657 418.524,395.713 418.065,392.160" stroke-width="3.909" stroke="black" fill="none" stroke-linecap="round"></path><path d="M 418.065,392.160 C 418.065,386.164 418.065,389.162 418.065,386.164" stroke-width="4.035" stroke="black" fill="none" stroke-linecap="round"></path><path d="M 418.065,386.164 C 418.065,389.162 418.065,386.164 418.065,392.160" stroke-width="4.847" stroke="black" fill="none" stroke-linecap="round"></path><path d="M 418.065,392.160 C 418.065,396.157 418.065,396.157 418.065,400.154" stroke-width="4.084" stroke="black" fill="none" stroke-linecap="round"></path><path d="M 418.065,400.154 C 418.065,404.150 418.065,404.150 418.065,408.147" stroke-width="3.900" stroke="black" fill="none" stroke-linecap="round"></path><path d="M 418.065,408.147 C 418.065,412.144 418.065,412.144 418.065,416.141" stroke-width="3.794" stroke="black" fill="none" stroke-linecap="round"></path><path d="M 418.065,416.141 C 418.065,419.638 418.065,419.638 418.065,423.135" stroke-width="3.877" stroke="black" fill="none" stroke-linecap="round"></path><path d="M 418.065,423.135 C 416.461,427.125 418.065,426.133 418.065,429.131" stroke-width="4.070" stroke="black" fill="none" stroke-linecap="round"></path><path d="M 418.065,429.131 C 421.823,432.132 420.456,432.121 426.055,433.128" stroke-width="4.537" stroke="black" fill="none" stroke-linecap="round"></path><path d="M 426.055,433.128 C 435.489,432.682 430.313,434.130 435.044,433.128" stroke-width="4.494" stroke="black" fill="none" stroke-linecap="round"></path><path d="M 523.933,353.190 C 524.448,360.224 523.933,360.185 523.933,367.179" stroke-width="4.943" stroke="black" fill="none" stroke-linecap="round"></path><path d="M 523.933,367.179 C 523.090,373.702 523.449,373.714 521.935,380.169" stroke-width="3.554" stroke="black" fill="none" stroke-linecap="round"></path><path d="M 521.935,380.169 C 520.845,387.767 520.593,387.691 518.939,395.157" stroke-width="3.753" stroke="black" fill="none" stroke-linecap="round"></path><path d="M 518.939,395.157 C 516.665,403.228 516.850,403.255 513.945,411.145" stroke-width="3.375" stroke="black" fill="none" stroke-linecap="round"></path><path d="M 513.945,411.145 C 510.949,419.139 511.172,419.215 507.953,427.132" stroke-width="3.375" stroke="black" fill="none" stroke-linecap="round"></path><path d="M 507.953,427.132 C 504.976,435.133 504.956,435.126 501.960,443.120" stroke-width="3.375" stroke="black" fill="none" stroke-linecap="round"></path><path d="M 501.960,443.120 C 495.862,457.425 496.486,457.616 490.974,472.097" stroke-width="3.375" stroke="black" fill="none" stroke-linecap="round"></path><path d="M 512.946,427.132 C 514.965,422.710 515.443,423.136 517.940,419.139" stroke-width="5.341" stroke="black" fill="none" stroke-linecap="round"></path><path d="M 517.940,419.139 C 520.170,416.650 519.959,416.715 522.934,415.142" stroke-width="4.494" stroke="black" fill="none" stroke-linecap="round"></path><path d="M 522.934,415.142 C 525.845,413.618 525.663,413.652 528.926,413.143" stroke-width="4.105" stroke="black" fill="none" stroke-linecap="round"></path><path d="M 528.926,413.143 C 532.422,413.143 532.337,412.618 535.918,413.143" stroke-width="4.021" stroke="black" fill="none" stroke-linecap="round"></path><path d="M 535.918,413.143 C 539.015,412.617 538.914,413.143 541.910,413.143" stroke-width="4.071" stroke="black" fill="none" stroke-linecap="round"></path><path d="M 541.910,413.143 C 545.723,413.252 544.509,413.616 546.904,415.142" stroke-width="4.167" stroke="black" fill="none" stroke-linecap="round"></path><path d="M 546.904,415.142 C 547.451,418.220 548.220,417.249 546.904,421.137" stroke-width="4.579" stroke="black" fill="none" stroke-linecap="round"></path><path d="M 546.904,421.137 C 546.075,426.484 545.953,426.213 543.908,431.129" stroke-width="4.361" stroke="black" fill="none" stroke-linecap="round"></path><path d="M 543.908,431.129 C 540.415,433.361 542.579,433.978 539.913,436.125" stroke-width="4.115" stroke="black" fill="none" stroke-linecap="round"></path><path d="M 539.913,436.125 C 542.153,439.211 539.416,438.856 541.910,442.121" stroke-width="4.877" stroke="black" fill="none" stroke-linecap="round"></path><path d="M 541.910,442.121 C 541.289,445.909 541.653,445.207 538.914,448.116" stroke-width="5.099" stroke="black" fill="none" stroke-linecap="round"></path><path d="M 538.914,448.116 C 533.640,452.015 534.298,452.404 527.928,455.111" stroke-width="3.659" stroke="black" fill="none" stroke-linecap="round"></path><path d="M 527.928,455.111 C 521.573,458.453 521.655,458.510 514.944,461.106" stroke-width="3.375" stroke="black" fill="none" stroke-linecap="round"></path><path d="M 514.944,461.106 C 508.951,463.104 509.088,463.449 502.959,465.103" stroke-width="3.375" stroke="black" fill="none" stroke-linecap="round"></path><path d="M 567.878,450.114 C 560.462,451.677 563.883,451.613 559.888,453.112" stroke-width="5.522" stroke="black" fill="none" stroke-linecap="round"></path><path d="M 559.888,453.112 C 562.806,455.111 559.463,454.175 565.880,455.111" stroke-width="5.325" stroke="black" fill="none" stroke-linecap="round"></path><path d="M 565.880,455.111 C 572.072,454.722 571.794,455.111 577.865,453.112" stroke-width="4.385" stroke="black" fill="none" stroke-linecap="round"></path><path d="M 577.865,453.112 C 580.919,451.718 581.060,452.224 583.858,450.114" stroke-width="4.224" stroke="black" fill="none" stroke-linecap="round"></path><path d="M 583.858,450.114 C 586.552,448.886 586.412,448.720 588.852,447.117" stroke-width="4.569" stroke="black" fill="none" stroke-linecap="round"></path><path d="M 588.852,447.117 C 592.412,442.892 593.044,443.890 596.842,440.122" stroke-width="4.607" stroke="black" fill="none" stroke-linecap="round"></path><path d="M 596.842,440.122 C 600.705,437.899 600.402,437.896 604.832,437.125" stroke-width="4.868" stroke="black" fill="none" stroke-linecap="round"></path><path d="M 604.832,437.125 C 612.607,435.409 608.695,436.400 612.822,437.125" stroke-width="4.855" stroke="black" fill="none" stroke-linecap="round"></path><path d="M 612.822,437.125 C 609.429,441.218 613.107,439.405 605.830,445.118" stroke-width="4.947" stroke="black" fill="none" stroke-linecap="round"></path><path d="M 605.830,445.118 C 603.457,447.755 603.437,447.713 600.837,450.114" stroke-width="4.275" stroke="black" fill="none" stroke-linecap="round"></path><path d="M 600.837,450.114 C 594.765,452.853 598.464,452.251 595.843,454.111" stroke-width="4.142" stroke="black" fill="none" stroke-linecap="round"></path><path d="M 595.843,454.111 C 601.267,456.127 597.761,456.351 606.829,457.109" stroke-width="4.780" stroke="black" fill="none" stroke-linecap="round"></path><path d="M 606.829,457.109 C 609.825,457.109 609.756,457.626 612.822,457.109" stroke-width="4.277" stroke="black" fill="none" stroke-linecap="round"></path><path d="M 644.782,444.119 C 646.910,447.706 647.279,446.118 649.775,448.116" stroke-width="5.588" stroke="black" fill="none" stroke-linecap="round"></path><path d="M 649.775,448.116 C 654.692,448.035 653.901,448.706 658.764,446.118" stroke-width="4.674" stroke="black" fill="none" stroke-linecap="round"></path><path d="M 658.764,446.118 C 662.315,441.788 663.182,444.038 666.754,440.122" stroke-width="4.734" stroke="black" fill="none" stroke-linecap="round"></path><path d="M 666.754,440.122 C 670.881,440.847 670.305,438.790 674.744,440.122" stroke-width="5.197" stroke="black" fill="none" stroke-linecap="round"></path><path d="M 674.744,440.122 C 678.608,437.899 678.871,439.348 682.734,437.125" stroke-width="5.129" stroke="black" fill="none" stroke-linecap="round"></path><path d="M 715.693,434.127 C 711.885,435.698 713.695,436.125 711.698,438.124" stroke-width="5.547" stroke="black" fill="none" stroke-linecap="round"></path><path d="M 711.698,438.124 C 711.754,443.930 711.385,442.193 714.694,447.117" stroke-width="5.448" stroke="black" fill="none" stroke-linecap="round"></path><path d="M 748.652,482.089 C 745.156,482.089 745.156,482.089 741.661,482.089" stroke-width="5.363" stroke="black" fill="none" stroke-linecap="round"></path><path d="M 741.661,482.089 C 737.131,481.665 737.166,482.089 732.672,482.089" stroke-width="3.995" stroke="black" fill="none" stroke-linecap="round"></path><path d="M 732.672,482.089 C 726.703,483.258 726.644,482.664 720.687,484.088" stroke-width="3.583" stroke="black" fill="none" stroke-linecap="round"></path><path d="M 720.687,484.088 C 712.182,484.971 712.221,485.256 703.708,486.086" stroke-width="3.375" stroke="black" fill="none" stroke-linecap="round"></path><path d="M 703.708,486.086 C 693.238,487.713 693.206,487.469 682.734,489.084" stroke-width="3.375" stroke="black" fill="none" stroke-linecap="round"></path><path d="M 682.734,489.084 C 670.256,490.640 670.267,490.711 657.765,492.082" stroke-width="3.375" stroke="black" fill="none" stroke-linecap="round"></path><path d="M 657.765,492.082 C 644.259,493.396 644.289,493.637 630.799,495.079" stroke-width="3.375" stroke="black" fill="none" stroke-linecap="round"></path><path d="M 630.799,495.079 C 616.258,496.711 616.294,496.893 601.835,499.076" stroke-width="3.375" stroke="black" fill="none" stroke-linecap="round"></path><path d="M 601.835,499.076 C 585.836,501.973 585.796,501.707 569.875,505.072" stroke-width="3.375" stroke="black" fill="none" stroke-linecap="round"></path><path d="M 569.875,505.072 C 552.346,508.330 552.378,508.468 534.919,512.066" stroke-width="3.375" stroke="black" fill="none" stroke-linecap="round"></path><path d="M 534.919,512.066 C 517.344,515.670 517.390,515.824 499.963,520.060" stroke-width="3.375" stroke="black" fill="none" stroke-linecap="round"></path><path d="M 499.963,520.060 C 465.499,527.566 465.908,528.660 432.048,538.046" stroke-width="3.375" stroke="black" fill="none" stroke-linecap="round"></path><path d="M 432.048,538.046 C 416.080,543.535 416.061,543.054 401.086,551.036" stroke-width="3.375" stroke="black" fill="none" stroke-linecap="round"></path><path d="M 401.086,551.036 C 375.668,563.172 376.130,563.519 352.147,578.015" stroke-width="3.375" stroke="black" fill="none" stroke-linecap="round"></path><path d="M 352.147,578.015 C 342.777,583.848 343.209,583.656 336.167,592.004" stroke-width="3.375" stroke="black" fill="none" stroke-linecap="round"></path><path d="M 336.167,592.004 C 327.575,603.046 327.796,602.334 322.185,614.986" stroke-width="3.375" stroke="black" fill="none" stroke-linecap="round"></path><path d="M 322.185,614.986 C 320.274,620.005 320.583,618.534 322.185,622.979" stroke-width="3.375" stroke="black" fill="none" stroke-linecap="round"></path><path d="M 322.185,622.979 C 326.252,626.891 324.768,627.000 331.174,628.975" stroke-width="3.784" stroke="black" fill="none" stroke-linecap="round"></path><path d="M 331.174,628.975 C 339.515,632.152 339.236,632.387 348.152,633.971" stroke-width="3.375" stroke="black" fill="none" stroke-linecap="round"></path><path d="M 348.152,633.971 C 358.583,636.265 358.492,636.149 369.126,636.969" stroke-width="3.375" stroke="black" fill="none" stroke-linecap="round"></path><path d="M 369.126,636.969 C 381.133,637.478 381.055,637.764 393.096,636.969" stroke-width="3.375" stroke="black" fill="none" stroke-linecap="round"></path><path d="M 393.096,636.969 C 404.675,636.598 404.604,636.479 416.068,634.970" stroke-width="3.375" stroke="black" fill="none" stroke-linecap="round"></path><path d="M 416.068,634.970 C 425.647,633.324 425.649,633.601 435.044,630.973" stroke-width="3.375" stroke="black" fill="none" stroke-linecap="round"></path><path d="M 435.044,630.973 C 441.775,629.535 441.627,629.327 448.028,626.976" stroke-width="3.375" stroke="black" fill="none" stroke-linecap="round"></path><path d="M 448.028,626.976 C 453.014,625.060 452.761,625.039 457.016,621.980" stroke-width="3.375" stroke="black" fill="none" stroke-linecap="round"></path><path d="M 457.016,621.980 C 459.980,619.821 459.506,620.064 461.011,616.984" stroke-width="3.809" stroke="black" fill="none" stroke-linecap="round"></path><path d="M 461.011,616.984 C 462.273,613.513 461.978,614.325 461.011,610.989" stroke-width="4.087" stroke="black" fill="none" stroke-linecap="round"></path><path d="M 461.011,610.989 C 458.108,606.306 458.777,606.518 454.020,602.995" stroke-width="3.566" stroke="black" fill="none" stroke-linecap="round"></path><path d="M 454.020,602.995 C 447.283,598.053 447.621,597.812 440.038,594.002" stroke-width="3.375" stroke="black" fill="none" stroke-linecap="round"></path><path d="M 440.038,594.002 C 430.258,588.543 430.304,588.560 420.063,584.010" stroke-width="3.375" stroke="black" fill="none" stroke-linecap="round"></path><path d="M 420.063,584.010 C 407.672,578.766 407.786,578.551 395.094,574.018" stroke-width="3.375" stroke="black" fill="none" stroke-linecap="round"></path><path d="M 395.094,574.018 C 381.333,568.289 381.205,568.774 367.129,564.025" stroke-width="3.375" stroke="black" fill="none" stroke-linecap="round"></path><path d="M 367.129,564.025 C 351.312,559.216 351.371,559.296 335.169,556.032" stroke-width="3.375" stroke="black" fill="none" stroke-linecap="round"></path><path d="M 335.169,556.032 C 315.815,551.437 315.857,552.222 296.217,550.036" stroke-width="3.375" stroke="black" fill="none" stroke-linecap="round"></path><path d="M 296.217,550.036 C 273.707,549.081 273.868,548.439 251.274,550.036" stroke-width="3.375" stroke="black" fill="none" stroke-linecap="round"></path><path d="M 251.274,550.036 C 226.703,551.180 226.765,551.080 202.335,554.033" stroke-width="3.375" stroke="black" fill="none" stroke-linecap="round"></path><path d="M 202.335,554.033 C 179.679,556.623 179.762,556.676 157.391,561.028" stroke-width="3.375" stroke="black" fill="none" stroke-linecap="round"></path><path d="M 157.391,561.028 C 139.215,564.857 139.230,564.617 121.436,570.021" stroke-width="3.375" stroke="black" fill="none" stroke-linecap="round"></path><path d="M 121.436,570.021 C 108.340,574.222 108.253,573.850 95.468,579.014" stroke-width="3.375" stroke="black" fill="none" stroke-linecap="round"></path><path d="M 95.468,579.014 C 86.874,582.280 86.867,582.216 78.490,586.008" stroke-width="3.375" stroke="black" fill="none" stroke-linecap="round"></path><path d="M 78.490,586.008 C 73.144,588.019 73.391,588.276 68.502,591.004" stroke-width="3.375" stroke="black" fill="none" stroke-linecap="round"></path><path d="M 68.502,591.004 C 64.087,593.112 66.153,592.515 64.507,595.001" stroke-width="3.739" stroke="black" fill="none" stroke-linecap="round"></path><path d="M 64.507,595.001 C 66.851,598.990 65.086,597.609 70.500,599.997" stroke-width="3.768" stroke="black" fill="none" stroke-linecap="round"></path><path d="M 70.500,599.997 C 81.925,602.427 81.333,602.987 93.471,602.995" stroke-width="3.375" stroke="black" fill="none" stroke-linecap="round"></path><path d="M 93.471,602.995 C 112.466,603.642 112.387,603.926 131.423,602.995" stroke-width="3.375" stroke="black" fill="none" stroke-linecap="round"></path><path d="M 131.423,602.995 C 156.434,602.019 156.412,602.143 181.361,599.997" stroke-width="3.375" stroke="black" fill="none" stroke-linecap="round"></path><path d="M 181.361,599.997 C 211.804,596.796 211.864,597.523 242.285,594.002" stroke-width="3.375" stroke="black" fill="none" stroke-linecap="round"></path><path d="M 242.285,594.002 C 277.222,590.756 277.222,590.800 312.197,588.007" stroke-width="3.375" stroke="black" fill="none" stroke-linecap="round"></path><path d="M 312.197,588.007 C 347.142,585.326 347.134,585.260 382.110,583.011" stroke-width="3.375" stroke="black" fill="none" stroke-linecap="round"></path><path d="M 382.110,583.011 C 415.049,580.597 415.057,580.829 448.028,579.014" stroke-width="3.375" stroke="black" fill="none" stroke-linecap="round"></path><path d="M 448.028,579.014 C 477.507,578.367 477.471,577.600 506.954,577.015" stroke-width="3.375" stroke="black" fill="none" stroke-linecap="round"></path><path d="M 506.954,577.015 C 531.938,575.739 531.939,575.869 556.892,574.018" stroke-width="3.375" stroke="black" fill="none" stroke-linecap="round"></path><path d="M 556.892,574.018 C 575.349,572.222 575.384,572.742 593.845,571.020" stroke-width="3.375" stroke="black" fill="none" stroke-linecap="round"></path><path d="M 593.845,571.020 C 613.935,570.713 613.801,569.724 633.795,569.022" stroke-width="3.375" stroke="black" fill="none" stroke-linecap="round"></path><path d="M 633.795,569.022 C 640.787,568.928 637.406,568.714 640.787,567.023" stroke-width="3.375" stroke="black" fill="none" stroke-linecap="round"></path></svg>